<svg width="267" height="317" viewBox="0 0 267 317" fill="none" xmlns="http://www.w3.org/2000/svg">
<g opacity="0.9">
<path opacity="0.4" d="M74.2442 189.354L63.8104 182.119L66.4293 174.407C63.1949 171.587 60.2067 168.496 57.4973 165.169L49.669 167.502L42.803 156.858L48.1767 150.737C46.2938 146.876 44.7226 142.87 43.4783 138.759L35.354 137.937L33.0695 125.49L40.4061 121.858C40.1128 117.583 40.1799 113.292 40.6068 109.03L33.4194 105.173L36.0867 92.7779L44.2219 92.255C45.6224 88.1953 47.3379 84.2513 49.3527 80.4592L44.1855 74.151L51.3928 63.7574L59.1385 66.3473C61.98 63.1413 65.0663 60.1607 68.3694 57.4321L66.0159 49.6173L76.6809 42.7865L82.8122 48.1658C86.6553 46.2637 90.6539 44.6921 94.7645 43.4681L95.5768 35.349L108.061 33.0872L111.658 40.4113C115.939 40.1373 120.236 40.213 124.505 40.6378L128.354 33.4592L140.746 36.1329L141.288 44.3077C145.357 45.6716 149.3 47.3869 153.071 49.4341L159.402 44.2398L169.849 51.4838L167.203 59.2339C170.45 62.0482 173.444 65.1425 176.148 68.4809L183.981 66.1137L190.83 76.7824L185.481 82.9211C187.368 86.7655 188.936 90.7571 190.172 94.8561L198.331 95.6838L200.508 108.15L193.176 111.748C193.473 116.032 193.411 120.333 192.992 124.606L200.179 128.463L197.495 140.828L189.351 141.363C187.982 145.424 186.272 149.362 184.238 153.134L189.392 159.489L182.184 169.882L174.505 167.169C171.682 170.407 168.588 173.398 165.257 176.11L167.619 183.912L156.971 190.773L150.839 185.394C146.985 187.276 142.982 188.838 138.87 190.061L138.027 198.253L125.582 200.485L121.938 193.147C117.66 193.429 113.367 193.368 109.098 192.964L105.224 200.125L92.8492 197.426L92.3025 189.285C88.2306 187.915 84.284 186.197 80.5066 184.15L74.2442 189.354ZM164.904 150.157C171.489 140.661 175.106 129.423 175.297 117.864C175.489 106.306 172.246 94.9449 165.98 85.2193C159.714 75.4937 150.705 67.84 140.094 63.2262C129.482 58.6124 117.744 57.2457 106.364 59.2989C94.9843 61.3522 84.4737 66.7332 76.1617 74.7613C67.8497 82.7895 62.1096 93.1043 59.6675 104.401C57.2253 115.698 58.1907 127.469 62.4416 138.227C66.6925 148.984 74.038 158.244 83.549 164.836C96.2991 173.657 112.025 177.063 127.271 174.304C142.517 171.545 156.034 162.847 164.853 150.122L164.904 150.157Z" fill="#D4D4D4"/>
<path opacity="0.5" d="M125.792 273.866C124.016 271.59 122.473 269.141 121.187 266.558L113.865 263.547L110.949 247.506L116.747 242.13C117.042 239.261 117.625 236.429 118.487 233.677L114.891 225.076L124.193 211.662L133.5 212.027C135.778 210.251 138.229 208.708 140.815 207.421L143.817 200.106L159.872 197.201L165.258 203.003C168.128 203.309 170.961 203.895 173.717 204.754L182.309 201.184L195.73 210.49L195.399 219.788C197.168 222.075 198.714 224.525 200.016 227.106L207.339 230.116L210.258 246.179L204.46 251.555C204.155 254.428 203.569 257.263 202.711 260.021L206.304 268.601L197.019 281.989L187.764 281.603C185.485 283.37 183.038 284.908 180.458 286.196L177.455 293.511L161.397 296.395L156.011 290.593C153.136 290.285 150.299 289.696 147.539 288.834L138.947 292.404L125.513 283.089L125.792 273.866ZM179.197 259.708C181.746 256.037 183.148 251.691 183.225 247.221C183.302 242.75 182.05 238.355 179.629 234.593C177.208 230.83 173.725 227.868 169.622 226.081C165.518 224.294 160.979 223.763 156.577 224.555C152.175 225.347 148.109 227.427 144.893 230.531C141.677 233.634 139.455 237.623 138.509 241.992C137.563 246.36 137.935 250.913 139.578 255.074C141.22 259.236 144.06 262.818 147.738 265.368C152.667 268.786 158.75 270.11 164.649 269.048C170.548 267.987 175.781 264.627 179.197 259.708Z" fill="#E5E5E5"/>
<path opacity="0.5" d="M202.305 198.385C201.212 196.985 200.262 195.478 199.47 193.887L194.964 192.035L193.17 182.162L196.738 178.854C196.92 177.088 197.278 175.345 197.809 173.652L195.596 168.358L201.32 160.103L207.048 160.328C208.45 159.235 209.958 158.285 211.55 157.493L213.398 152.992L223.278 151.203L226.593 154.774C228.359 154.963 230.103 155.323 231.799 155.852L237.087 153.654L245.346 159.382L245.142 165.104C246.231 166.511 247.183 168.02 247.984 169.608L252.491 171.46L254.287 181.346L250.719 184.654C250.531 186.422 250.171 188.167 249.643 189.864L251.854 195.145L246.14 203.384L240.444 203.147C239.041 204.234 237.535 205.181 235.947 205.974L234.1 210.475L224.217 212.25L220.902 208.679C219.133 208.49 217.387 208.127 215.688 207.597L210.4 209.794L202.133 204.061L202.305 198.385ZM235.171 189.672C236.74 187.413 237.603 184.738 237.65 181.987C237.698 179.236 236.927 176.531 235.437 174.215C233.947 171.899 231.804 170.076 229.279 168.977C226.753 167.877 223.959 167.551 221.25 168.038C218.542 168.526 216.039 169.805 214.06 171.715C212.081 173.625 210.713 176.08 210.131 178.769C209.549 181.458 209.778 184.26 210.789 186.82C211.8 189.381 213.547 191.586 215.811 193.155C218.844 195.259 222.588 196.074 226.218 195.42C229.848 194.767 233.069 192.699 235.171 189.672Z" fill="#E5E5E5"/>
</g>
</svg>
