<svg width="78" height="215" viewBox="0 0 78 215" fill="none" xmlns="http://www.w3.org/2000/svg">
<path d="M67.2791 125.782C65.1891 119.782 48.699 127.942 42.049 137.872C37.599 144.482 34.879 151.552 33.619 161.032C33.7691 150.192 33.939 138.582 34.109 127.612C35.459 124.882 38.539 118.562 40.769 113.612C48.169 96.932 65.769 90.732 71.849 80.192C79.849 66.392 79.769 45.702 72.989 38.242C67.139 31.712 47.569 75.592 45.369 80.492C39.3816 93.6144 35.6073 107.637 34.199 121.992C34.349 111.682 34.509 102.222 34.639 94.882C35.049 71.072 35.569 63.412 35.799 61.062C36.619 59.902 37.579 58.562 38.129 57.842C42.849 51.762 53.329 44.522 58.569 35.682C66.219 22.772 64.979 7.32202 59.619 1.61202C54.009 -4.38798 44.089 9.81202 38.829 23.892C33.569 37.972 35.8291 51.462 34.3391 63.162C34.029 65.492 33.709 74.162 33.409 86.262C31.809 73.262 28.629 64.542 22.739 56.422C15.479 46.422 9.21902 34.272 3.24902 35.842C-2.72098 37.412 0.489022 53.512 5.24902 64.842C9.45902 74.902 30.249 84.932 33.249 93.022C32.899 109.402 32.569 130.192 32.3391 149.492C30.7091 139.492 31.829 138.652 25.119 123.392C21.119 114.302 4.77905 103.092 2.83905 109.342C0.899049 115.592 3.83904 127.342 10.019 135.672C15.019 142.342 26.019 142.332 28.609 146.472C29.199 147.472 31.169 151.112 32.299 153.262C32.029 176.852 31.909 197.682 32.049 204.792L33.119 204.862C33.069 203.032 33.199 191.022 33.409 175.132C36.089 166.692 54.159 161.752 59.739 152.962C65.589 143.712 69.7791 132.982 67.2791 125.782Z" fill="#E6E6E6"/>
<path d="M50.2891 215.432H15.6291C14.7169 215.421 13.8359 215.099 13.132 214.519C12.4281 213.939 11.9437 213.135 11.7591 212.242L9.28906 200.102H56.6891L54.2291 212.242C54.0419 213.147 53.5472 213.959 52.8289 214.541C52.1107 215.122 51.2132 215.437 50.2891 215.432Z" fill="#E6E6E6"/>
<path d="M57.6491 204.802H8.26905C7.69626 204.806 7.14236 204.597 6.71403 204.217C6.28571 203.837 6.01323 203.311 5.94905 202.742L4.94905 193.742C4.88077 193.137 5.05177 192.53 5.42552 192.05C5.79926 191.569 6.34609 191.254 6.94905 191.172H58.629C58.9345 191.169 59.2376 191.227 59.5207 191.342C59.8038 191.457 60.0615 191.626 60.2789 191.841C60.4964 192.056 60.6692 192.311 60.7877 192.593C60.9061 192.874 60.9677 193.177 60.969 193.482C60.974 193.572 60.974 193.662 60.969 193.752L59.969 202.752C59.9069 203.321 59.6347 203.847 59.2056 204.226C58.7766 204.605 58.2215 204.81 57.6491 204.802Z" fill="#F0F0F0"/>
</svg>
