<svg width="80" height="26" viewBox="0 0 80 26" fill="none" xmlns="http://www.w3.org/2000/svg">
<path d="M22.8733 12.9748H19.9541V22.0774H17.7158V12.9748H14.7966V11.0517H22.8733V12.9748Z" fill="white"/>
<path d="M27.5799 21.5731C26.6778 22.0346 25.5459 22.2654 24.1586 22.2654C23.1203 22.2654 22.3288 22.0346 21.7671 21.5816C21.2054 21.1287 20.9246 20.5304 20.9246 19.7953C20.9246 19.0261 21.2139 18.4278 21.7841 17.9834C22.3629 17.5389 23.1203 17.3167 24.0735 17.3082C24.482 17.3082 24.9501 17.3509 25.4693 17.4364V17.0603C25.4693 16.1116 24.9331 15.6415 23.8693 15.6415C23.0948 15.6415 22.4054 15.7697 21.8012 16.0176L21.4097 14.3167C22.1586 14.0005 23.0693 13.8466 24.1246 13.8466C25.265 13.8466 26.1246 14.1372 26.7033 14.7099C27.282 15.2911 27.5714 16.1201 27.5714 17.197V21.5731H27.5799ZM24.3799 20.7099C24.8395 20.7099 25.2054 20.6329 25.4778 20.4876V18.8039C25.0948 18.7184 24.7203 18.6757 24.3629 18.6757C23.5033 18.6757 23.0778 19.0175 23.0778 19.7013C23.0778 20.368 23.5118 20.7099 24.3799 20.7099Z" fill="white"/>
<path d="M31.18 10.6671V19.1713C31.18 20.0431 31.4608 20.479 32.0225 20.479C32.1927 20.479 32.3374 20.4619 32.4736 20.4277L32.6268 22.1457C32.2268 22.2311 31.8608 22.2739 31.5289 22.2739C29.8438 22.2739 29.0012 21.2482 29.0012 19.2055V10.7953L31.18 10.6671Z" fill="white"/>
<path d="M39.8772 21.7269C39.0942 22.0859 38.175 22.2654 37.1367 22.2654C35.8601 22.2654 34.8388 21.8893 34.0559 21.1201C33.2814 20.3594 32.8899 19.3338 32.8899 18.0432C32.8899 16.7953 33.2473 15.7782 33.9707 15.009C34.6942 14.2312 35.6303 13.8466 36.7793 13.8466C37.8006 13.8466 38.6261 14.18 39.2474 14.8381C39.8686 15.4962 40.1835 16.3594 40.1835 17.4193C40.1835 17.7953 40.1665 18.197 40.124 18.6158H35.1708C35.3665 19.8295 36.0984 20.4449 37.3665 20.4449C38.0984 20.4449 38.8218 20.2911 39.5452 19.9919L39.8772 21.7269ZM36.7793 15.5731C36.3282 15.5731 35.9622 15.727 35.6729 16.0261C35.3835 16.3338 35.2048 16.7526 35.1282 17.2825H38.1069V17.0945C38.1069 16.6415 37.9878 16.274 37.758 15.9919C37.5197 15.7184 37.1963 15.5731 36.7793 15.5731Z" fill="white"/>
<path d="M43.4862 22.0774H41.3416V14.5389C42.4139 14.0774 43.5969 13.8466 44.882 13.8466C46.0309 13.8466 46.916 14.1287 47.5458 14.6842C48.1756 15.2398 48.4905 16.0346 48.4905 17.0774V22.0859H46.3288V17.2398C46.3288 16.1799 45.8437 15.65 44.8735 15.65C44.3628 15.65 43.9033 15.7441 43.4948 15.9321V22.0774H43.4862Z" fill="white"/>
<path d="M54.4308 22.1286C54.0563 22.2227 53.5967 22.2739 53.0691 22.2739C51.1882 22.2739 50.2435 21.2397 50.2435 19.1714V15.7697H49.1797V14.0346H50.2435V12.2825L52.4052 12.1714V14.0261H54.1414V15.7611H52.4052V19.1286C52.4052 20.0175 52.7627 20.4705 53.4861 20.4705C53.7669 20.4705 54.0478 20.4363 54.3201 20.3765L54.4308 22.1286Z" fill="white"/>
<path d="M57.3758 10.6671V19.1713C57.3758 20.0431 57.6566 20.479 58.2183 20.479C58.3885 20.479 58.5332 20.4619 58.6694 20.4277L58.8226 22.1457C58.4226 22.2311 58.0566 22.2739 57.7247 22.2739C56.0396 22.2739 55.197 21.2482 55.197 19.2055V10.7953L57.3758 10.6671Z" fill="white"/>
<path d="M61.8267 14.0345V22.0773H59.665V14.0345H61.8267Z" fill="white"/>
<path d="M65.5878 22.0774H63.4431V14.5389C64.5155 14.0774 65.6984 13.8466 66.9836 13.8466C68.1325 13.8466 69.0176 14.1287 69.6474 14.6842C70.2772 15.2398 70.5921 16.0346 70.5921 17.0774V22.0859H68.4304V17.2398C68.4304 16.1799 67.9453 15.65 66.975 15.65C66.4644 15.65 66.0048 15.7441 65.5963 15.9321V22.0774H65.5878Z" fill="white"/>
<path d="M77.1288 22.0773L75.3245 19.0089C74.9585 19.2738 74.6096 19.5046 74.2777 19.7183V22.0773H72.116V10.7867L74.2777 10.6756V17.6157C75.6649 16.7097 76.4819 15.5132 76.7202 14.026H78.8649C78.8224 15.3166 78.1585 16.5644 76.8734 17.7696L79.4777 22.0687H77.1288V22.0773Z" fill="white"/>
<path d="M18.4704 24.3329C18.2491 24.35 18.2236 24.3671 18.2236 24.5893V25.632C18.2236 25.8542 18.2491 25.8713 18.4704 25.8884V25.9654H17.73V25.8884C17.9598 25.8713 17.9853 25.8542 17.9853 25.632V25.1192H17.0662V25.632C17.0662 25.8542 17.0917 25.8713 17.313 25.8884V25.9654H16.5811V25.8884C16.7938 25.8713 16.8194 25.8542 16.8194 25.632V24.5893C16.8194 24.3671 16.8023 24.35 16.5811 24.3329V24.256H17.3045V24.3329C17.1002 24.35 17.0747 24.3671 17.0747 24.5893V24.9995H17.9938V24.5893C17.9938 24.3671 17.9683 24.35 17.7555 24.3329V24.256H18.4789V24.3329H18.4704Z" fill="white"/>
<path d="M21.3211 25.8971C21.2615 25.9056 21.1849 25.9227 21.1083 25.9398C21.0317 25.9569 20.9636 25.974 20.9041 25.9911L20.887 25.974V25.7859C20.8275 25.8287 20.7764 25.88 20.6998 25.9227C20.6232 25.9654 20.5636 25.9911 20.487 25.9911C20.2998 25.9911 20.1466 25.88 20.1466 25.5979V25.0936C20.1466 24.9483 20.1211 24.9398 20.0615 24.9227L19.9934 24.9056V24.8458C20.0445 24.8458 20.1211 24.8372 20.1977 24.8287C20.2743 24.8201 20.3509 24.803 20.4019 24.803C20.3934 24.88 20.3934 25.0082 20.3934 25.1877V25.5381C20.3934 25.7603 20.504 25.8287 20.6232 25.8287C20.7168 25.8287 20.8104 25.7945 20.8955 25.709V25.1022C20.8955 24.9569 20.87 24.9398 20.7849 24.9312L20.6913 24.9142V24.8458C20.7679 24.8458 20.8615 24.8372 20.9381 24.8201C21.0147 24.8116 21.0828 24.803 21.1253 24.7945V25.6577C21.1253 25.7945 21.1509 25.8116 21.253 25.8201H21.3211V25.8971Z" fill="white"/>
<path d="M24.2582 25.9653V25.8969C24.4028 25.8798 24.4369 25.8713 24.4369 25.6833V25.2559C24.4369 25.0593 24.3603 24.9482 24.2071 24.9482C24.122 24.9482 24.0284 24.9995 23.9263 25.0764C23.9263 25.1106 23.9348 25.1363 23.9348 25.1875V25.6918C23.9348 25.8542 23.9603 25.8713 24.105 25.8884V25.9568H23.5177V25.8884C23.6794 25.8713 23.6965 25.8627 23.6965 25.6833V25.2388C23.6965 25.0422 23.6199 24.9397 23.4752 24.9397C23.3731 24.9397 23.2794 25.0081 23.1943 25.0679V25.6833C23.1943 25.8542 23.2199 25.8713 23.339 25.8884V25.9568H22.7688V25.8884C22.939 25.8713 22.9645 25.8542 22.9645 25.6833V25.1534C22.9645 24.9824 22.956 24.9739 22.8028 24.9482V24.8798C22.9135 24.8628 23.0667 24.8286 23.1943 24.7773V24.991C23.2539 24.9568 23.305 24.9055 23.3901 24.8542C23.4582 24.8115 23.5262 24.7858 23.6114 24.7858C23.739 24.7858 23.8497 24.8628 23.9092 24.9995C23.9858 24.9397 24.0624 24.8969 24.1305 24.8542C24.1901 24.82 24.2582 24.7858 24.3348 24.7858C24.5475 24.7858 24.6837 24.9311 24.6837 25.1961V25.6918C24.6837 25.8627 24.7007 25.8713 24.8539 25.8969V25.9653H24.2582Z" fill="white"/>
<path d="M27.1765 25.991C27.1255 25.991 27.0659 25.9653 27.0404 25.9397C27.0063 25.9055 26.9893 25.8713 26.9723 25.8286C26.8616 25.8969 26.7425 25.991 26.6659 25.991C26.4702 25.991 26.334 25.8371 26.334 25.6662C26.334 25.538 26.4021 25.4525 26.5468 25.4098C26.717 25.3585 26.9042 25.2901 26.9553 25.2388V25.1961C26.9553 25.0081 26.8702 24.9055 26.7425 24.9055C26.6999 24.9055 26.6574 24.9226 26.6319 24.9482C26.5978 24.9824 26.5723 25.0422 26.5553 25.1277C26.5382 25.1704 26.5127 25.1961 26.4702 25.1961C26.4191 25.1961 26.351 25.1448 26.351 25.0764C26.351 25.0337 26.385 25.0081 26.4361 24.9653C26.5127 24.9055 26.6914 24.8115 26.8446 24.7773C26.9297 24.7773 27.0063 24.7944 27.0659 24.8457C27.168 24.9311 27.1936 25.0337 27.1936 25.179V25.6491C27.1936 25.7687 27.2361 25.8029 27.2872 25.8029C27.3212 25.8029 27.3553 25.7944 27.3808 25.7773L27.4063 25.8457L27.1765 25.991ZM26.9723 25.3328C26.9212 25.3585 26.8106 25.4098 26.7595 25.4354C26.6574 25.4781 26.5978 25.5294 26.5978 25.632C26.5978 25.7687 26.6999 25.8286 26.7765 25.8286C26.8361 25.8286 26.9212 25.7858 26.9723 25.7431V25.3328Z" fill="white"/>
<path d="M29.6192 25.9653V25.8969C29.7724 25.8798 29.7894 25.8628 29.7894 25.6747V25.2474C29.7894 25.0679 29.7128 24.9568 29.5511 24.9568C29.449 24.9568 29.3554 25.0166 29.2703 25.085V25.6918C29.2703 25.8713 29.2873 25.8798 29.4405 25.8969V25.9653H28.8533V25.8969C29.032 25.8713 29.0405 25.8627 29.0405 25.6833V25.1534C29.0405 24.9824 29.0235 24.9739 28.8873 24.9482V24.8798C29.015 24.8628 29.1511 24.8286 29.2788 24.7773V24.991C29.3299 24.9482 29.3894 24.914 29.4575 24.8628C29.5341 24.8115 29.6022 24.7858 29.6788 24.7858C29.8916 24.7858 30.0277 24.9311 30.0277 25.1961V25.6833C30.0277 25.8627 30.0448 25.8713 30.198 25.8884V25.9568H29.6192V25.9653Z" fill="white"/>
<path d="M35.3476 25.9824C35.3136 25.9824 35.288 25.9824 35.254 25.9739C35.0412 25.9654 34.9306 25.9055 34.8029 25.7346C34.7093 25.6064 34.6242 25.444 34.5476 25.3243C34.4965 25.2474 34.454 25.2132 34.3178 25.2132H34.2412V25.6235C34.2412 25.8457 34.2667 25.8628 34.4795 25.8799V25.9568H33.7561V25.8799C33.9689 25.8628 33.9944 25.8457 33.9944 25.6235V24.5893C33.9944 24.3671 33.9689 24.35 33.7646 24.3329V24.256H34.4455C34.6497 24.256 34.7774 24.2816 34.8795 24.35C34.9902 24.4183 35.0582 24.538 35.0582 24.6918C35.0582 24.9226 34.9136 25.0594 34.7178 25.1363C34.7604 25.2218 34.871 25.3927 34.9561 25.5124C35.0497 25.6491 35.1093 25.726 35.1689 25.7859C35.237 25.8628 35.2965 25.8884 35.3561 25.9055L35.3476 25.9824ZM34.3519 25.1277C34.488 25.1277 34.5731 25.1021 34.6412 25.0508C34.7433 24.9739 34.7859 24.8713 34.7859 24.726C34.7859 24.444 34.5987 24.3414 34.4029 24.3414C34.3263 24.3414 34.2838 24.35 34.2582 24.3671C34.2412 24.3842 34.2327 24.4098 34.2327 24.4782V25.1277H34.3519Z" fill="white"/>
<path d="M37.7473 25.726C37.5771 25.9397 37.3814 25.991 37.2962 25.991C36.9728 25.991 36.7771 25.726 36.7771 25.4354C36.7771 25.2645 36.8367 25.1021 36.9473 24.9824C37.058 24.8542 37.2026 24.7773 37.3473 24.7773C37.5771 24.7773 37.7558 24.9739 37.7558 25.179C37.7558 25.2303 37.7388 25.2559 37.6963 25.2645C37.6452 25.273 37.3133 25.2986 37.0069 25.3072C37.0154 25.6491 37.2111 25.7944 37.3984 25.7944C37.509 25.7944 37.6111 25.7516 37.7048 25.6662L37.7473 25.726ZM37.2877 24.8798C37.1771 24.8798 37.0579 24.9824 37.0239 25.2046C37.1686 25.2046 37.3048 25.2046 37.458 25.1961C37.5005 25.1961 37.5175 25.179 37.5175 25.1448C37.509 25.0081 37.4239 24.8798 37.2877 24.8798Z" fill="white"/>
<path d="M39.9519 25.1363C39.9009 24.9824 39.8072 24.8713 39.6796 24.8713C39.586 24.8713 39.5179 24.9397 39.5179 25.0422C39.5179 25.1533 39.62 25.2132 39.7392 25.2559C39.9434 25.3328 40.0796 25.4354 40.0796 25.6149C40.0796 25.8628 39.8583 25.9824 39.637 25.9824C39.5009 25.9824 39.3732 25.9311 39.3306 25.8969C39.3136 25.8627 39.2881 25.6747 39.2881 25.5722L39.3647 25.5636C39.4157 25.7431 39.5349 25.8969 39.6881 25.8969C39.7817 25.8969 39.8668 25.82 39.8668 25.7175C39.8668 25.6063 39.7987 25.5465 39.6626 25.4867C39.5094 25.4183 39.3221 25.3243 39.3221 25.1192C39.3221 24.9311 39.4838 24.7773 39.7306 24.7773C39.8413 24.7773 39.9179 24.8029 39.9689 24.82C39.9945 24.8798 40.0285 25.0422 40.0285 25.1021L39.9519 25.1363Z" fill="white"/>
<path d="M42.1894 24.7859C42.5299 24.7859 42.7767 25.0509 42.7767 25.3671C42.7767 25.7945 42.4533 25.9911 42.1809 25.9911C41.7979 25.9911 41.5767 25.7005 41.5767 25.4184C41.5852 24.9825 41.9341 24.7859 42.1894 24.7859ZM42.1554 24.8714C42.0022 24.8714 41.8575 25.0253 41.8575 25.3244C41.8575 25.6577 42.0022 25.8971 42.215 25.8971C42.3682 25.8971 42.5043 25.7945 42.5043 25.427C42.5043 25.1107 42.3767 24.8714 42.1554 24.8714Z" fill="white"/>
<path d="M45.6197 25.8971C45.5601 25.9056 45.4835 25.9227 45.4069 25.9398C45.3303 25.9569 45.2622 25.974 45.2026 25.9911L45.1856 25.974V25.7859C45.126 25.8287 45.075 25.88 44.9984 25.9227C44.9218 25.9654 44.8622 25.9911 44.7856 25.9911C44.5984 25.9911 44.4452 25.88 44.4452 25.5979V25.0936C44.4452 24.9483 44.4197 24.9398 44.3601 24.9227L44.292 24.9056V24.8458C44.3431 24.8458 44.4197 24.8372 44.4963 24.8287C44.5728 24.8201 44.6494 24.803 44.7005 24.803C44.692 24.88 44.692 25.0082 44.692 25.1877V25.5381C44.692 25.7603 44.8026 25.8287 44.9218 25.8287C45.0154 25.8287 45.109 25.7945 45.1941 25.709V25.1022C45.1941 24.9569 45.1686 24.9398 45.0835 24.9312L44.9899 24.9142V24.8458C45.0665 24.8458 45.1601 24.8372 45.2367 24.8201C45.3133 24.8116 45.3814 24.803 45.4239 24.7945V25.6577C45.4239 25.7945 45.4494 25.8116 45.5516 25.8201H45.6197V25.8971Z" fill="white"/>
<path d="M47.5008 25.0679C47.5859 24.9226 47.6965 24.7858 47.8242 24.7858C47.9178 24.7858 47.9859 24.8542 47.9859 24.9226C47.9859 24.9824 47.9518 25.0337 47.8923 25.0679C47.8582 25.0764 47.8327 25.0764 47.8242 25.0593C47.7816 25.0251 47.7561 25.0081 47.705 25.0081C47.6369 25.0081 47.5603 25.085 47.5008 25.2217V25.6918C47.5008 25.8627 47.5093 25.8798 47.722 25.8969V25.9653H47.0837V25.8969C47.2454 25.8798 47.271 25.8627 47.271 25.6918V25.1448C47.271 24.9739 47.254 24.9653 47.1093 24.9482V24.8884C47.2454 24.8628 47.3646 24.8371 47.5008 24.7773V25.0679Z" fill="white"/>
<path d="M50.4449 25.7176C50.3258 25.8714 50.1471 25.9911 49.9854 25.9911C49.6364 25.9911 49.4407 25.7176 49.4407 25.4441C49.4407 25.2475 49.5343 25.068 49.713 24.9312C49.8577 24.8201 50.0194 24.7859 50.1215 24.7859C50.2322 24.7859 50.3173 24.8201 50.3598 24.8543C50.3939 24.88 50.4024 24.9056 50.4024 24.9312C50.4024 24.9911 50.3428 25.0509 50.3088 25.0509C50.2917 25.0509 50.2832 25.0424 50.2577 25.0167C50.1726 24.9398 50.079 24.9056 49.9854 24.9056C49.8237 24.9056 49.6705 25.0424 49.6705 25.3159C49.6705 25.6748 49.9343 25.7945 50.0705 25.7945C50.1811 25.7945 50.2747 25.7603 50.3939 25.6492L50.4449 25.7176Z" fill="white"/>
<path d="M52.8877 25.726C52.7175 25.9397 52.5217 25.991 52.4366 25.991C52.1132 25.991 51.9175 25.726 51.9175 25.4354C51.9175 25.2645 51.9771 25.1021 52.0877 24.9824C52.1983 24.8542 52.343 24.7773 52.4877 24.7773C52.7175 24.7773 52.8962 24.9739 52.8962 25.179C52.8962 25.2303 52.8792 25.2559 52.8366 25.2645C52.7856 25.273 52.4537 25.2986 52.1473 25.3072C52.1558 25.6491 52.3515 25.7944 52.5388 25.7944C52.6494 25.7944 52.7515 25.7516 52.8451 25.6662L52.8877 25.726ZM52.4281 24.8798C52.3175 24.8798 52.1983 24.9824 52.1643 25.2046C52.309 25.2046 52.4451 25.2046 52.5983 25.1961C52.6409 25.1961 52.6579 25.179 52.6579 25.1448C52.6494 25.0081 52.5643 24.8798 52.4281 24.8798Z" fill="white"/>
<path d="M55.0921 25.1363C55.041 24.9824 54.9474 24.8713 54.8197 24.8713C54.7261 24.8713 54.658 24.9397 54.658 25.0422C54.658 25.1533 54.7601 25.2132 54.8793 25.2559C55.0835 25.3328 55.2197 25.4354 55.2197 25.6149C55.2197 25.8628 54.9984 25.9824 54.7772 25.9824C54.641 25.9824 54.5133 25.9311 54.4708 25.8969C54.4538 25.8627 54.4282 25.6747 54.4282 25.5722L54.5048 25.5636C54.5559 25.7431 54.675 25.8969 54.8282 25.8969C54.9218 25.8969 55.007 25.82 55.007 25.7175C55.007 25.6063 54.9389 25.5465 54.8027 25.4867C54.6495 25.4183 54.4623 25.3243 54.4623 25.1192C54.4623 24.9311 54.624 24.7773 54.8708 24.7773C54.9814 24.7773 55.058 24.8029 55.1091 24.82C55.1346 24.8798 55.1687 25.0422 55.1687 25.1021L55.0921 25.1363Z" fill="white"/>
<path d="M59.721 24.6662C59.6785 24.4952 59.5934 24.3072 59.3636 24.3072C59.1593 24.3072 59.0657 24.4525 59.0657 24.5893C59.0657 24.7773 59.1934 24.8628 59.4062 24.9739C59.6359 25.085 59.8657 25.2132 59.8657 25.4952C59.8657 25.7773 59.6274 25.9995 59.2615 25.9995C59.1508 25.9995 59.0572 25.9824 58.9891 25.9568C58.921 25.9311 58.887 25.914 58.853 25.897C58.8359 25.8457 58.7934 25.6064 58.7764 25.4782L58.853 25.4525C58.8955 25.6235 59.0317 25.897 59.304 25.897C59.4998 25.897 59.6104 25.7773 59.6104 25.5893C59.6104 25.4012 59.4657 25.3072 59.2615 25.2046C59.0742 25.1106 58.8189 24.9824 58.8189 24.6918C58.8189 24.4269 59.0317 24.2132 59.3806 24.2132C59.5083 24.2132 59.6274 24.2474 59.7296 24.273C59.7381 24.367 59.7551 24.4782 59.7721 24.6491L59.721 24.6662Z" fill="white"/>
<path d="M62.02 24.7859C62.3604 24.7859 62.6072 25.0509 62.6072 25.3671C62.6072 25.7945 62.2838 25.9911 62.0115 25.9911C61.6285 25.9911 61.4072 25.7005 61.4072 25.4184C61.4157 24.9825 61.7647 24.7859 62.02 24.7859ZM61.986 24.8714C61.8328 24.8714 61.6881 25.0253 61.6881 25.3244C61.6881 25.6577 61.8328 25.8971 62.0455 25.8971C62.1987 25.8971 62.3349 25.7945 62.3349 25.427C62.3349 25.1107 62.2072 24.8714 61.986 24.8714Z" fill="white"/>
<path d="M64.0791 25.9654V25.897C64.2493 25.8799 64.2663 25.8628 64.2663 25.6833V24.4526C64.2663 24.2731 64.2493 24.2731 64.0876 24.256V24.1876C64.2323 24.1705 64.4025 24.1278 64.4961 24.0936V25.6833C64.4961 25.8628 64.5217 25.8799 64.6919 25.897V25.9654H64.0791Z" fill="white"/>
<path d="M67.4744 25.8971C67.4148 25.9056 67.3382 25.9227 67.2616 25.9398C67.185 25.9569 67.1169 25.974 67.0574 25.9911L67.0403 25.974V25.7859C66.9808 25.8287 66.9297 25.88 66.8531 25.9227C66.7765 25.9654 66.7169 25.9911 66.6403 25.9911C66.4531 25.9911 66.2999 25.88 66.2999 25.5979V25.0936C66.2999 24.9483 66.2744 24.9398 66.2148 24.9227L66.1467 24.9056V24.8458C66.1978 24.8458 66.2744 24.8372 66.351 24.8287C66.4276 24.8201 66.5042 24.803 66.5552 24.803C66.5467 24.88 66.5467 25.0082 66.5467 25.1877V25.5381C66.5467 25.7603 66.6574 25.8287 66.7765 25.8287C66.8701 25.8287 66.9638 25.7945 67.0489 25.709V25.1022C67.0489 24.9569 67.0233 24.9398 66.9382 24.9312L66.8446 24.9142V24.8458C66.9212 24.8458 67.0148 24.8372 67.0914 24.8201C67.168 24.8116 67.2361 24.803 67.2786 24.7945V25.6577C67.2786 25.7945 67.3042 25.8116 67.4063 25.8201H67.4744V25.8971Z" fill="white"/>
<path d="M69.4828 25.9568C69.4317 25.9825 69.3892 25.991 69.3722 25.991C69.1935 25.991 69.0998 25.8885 69.0998 25.6748V24.9227H68.9211L68.9126 24.8885L68.9892 24.8116H69.1083V24.6235L69.3041 24.444L69.3381 24.4526V24.8201H69.636C69.6615 24.8457 69.653 24.9056 69.619 24.9312H69.3381V25.5979C69.3381 25.8116 69.4317 25.8457 69.4913 25.8457C69.5509 25.8457 69.6105 25.8201 69.653 25.803L69.6786 25.8714L69.4828 25.9568Z" fill="white"/>
<path d="M71.1084 25.9655V25.8971C71.2786 25.88 71.2956 25.8629 71.2956 25.6834V25.1535C71.2956 24.9911 71.2871 24.974 71.1254 24.9484V24.8885C71.2701 24.8629 71.4063 24.8373 71.5254 24.786V25.6834C71.5254 25.8629 71.5424 25.88 71.7127 25.8971V25.9655H71.1084ZM71.2531 24.4185C71.2531 24.333 71.3212 24.2732 71.3978 24.2732C71.4744 24.2732 71.5339 24.333 71.5339 24.4185C71.5339 24.4954 71.4744 24.5638 71.3893 24.5638C71.3212 24.5638 71.2531 24.4954 71.2531 24.4185Z" fill="white"/>
<path d="M73.7983 24.7859C74.1387 24.7859 74.3855 25.0509 74.3855 25.3671C74.3855 25.7945 74.0621 25.9911 73.7898 25.9911C73.4068 25.9911 73.1855 25.7005 73.1855 25.4184C73.1941 24.9825 73.543 24.7859 73.7983 24.7859ZM73.7643 24.8714C73.6111 24.8714 73.4664 25.0253 73.4664 25.3244C73.4664 25.6577 73.6111 25.8971 73.8238 25.8971C73.977 25.8971 74.1132 25.7945 74.1132 25.427C74.1132 25.1107 73.9941 24.8714 73.7643 24.8714Z" fill="white"/>
<path d="M76.6751 25.9653V25.8969C76.8283 25.8798 76.8454 25.8628 76.8454 25.6747V25.2474C76.8454 25.0679 76.7688 24.9568 76.6071 24.9568C76.5049 24.9568 76.4113 25.0166 76.3262 25.085V25.6918C76.3262 25.8713 76.3432 25.8798 76.4964 25.8969V25.9653H75.9092V25.8969C76.0879 25.8713 76.0964 25.8627 76.0964 25.6833V25.1534C76.0964 24.9824 76.0794 24.9739 75.9432 24.9482V24.8798C76.0709 24.8628 76.2071 24.8286 76.3347 24.7773V24.991C76.3858 24.9482 76.4453 24.914 76.5134 24.8628C76.59 24.8115 76.6581 24.7858 76.7347 24.7858C76.9475 24.7858 77.0837 24.9311 77.0837 25.1961V25.6833C77.0837 25.8627 77.1007 25.8713 77.2539 25.8884V25.9568H76.6751V25.9653Z" fill="white"/>
<path d="M79.4319 25.1363C79.3808 24.9824 79.2872 24.8713 79.1596 24.8713C79.0659 24.8713 78.9979 24.9397 78.9979 25.0422C78.9979 25.1533 79.1 25.2132 79.2191 25.2559C79.4234 25.3328 79.5596 25.4354 79.5596 25.6149C79.5596 25.8628 79.3383 25.9824 79.117 25.9824C78.9808 25.9824 78.8532 25.9311 78.8106 25.8969C78.7936 25.8627 78.7681 25.6747 78.7681 25.5722L78.8447 25.5636C78.8957 25.7431 79.0149 25.8969 79.1681 25.8969C79.2617 25.8969 79.3468 25.82 79.3468 25.7175C79.3468 25.6063 79.2787 25.5465 79.1425 25.4867C78.9893 25.4183 78.8021 25.3243 78.8021 25.1192C78.8021 24.9311 78.9638 24.7773 79.2106 24.7773C79.3213 24.7773 79.3979 24.8029 79.4489 24.82C79.4745 24.8798 79.5085 25.0422 79.5085 25.1021L79.4319 25.1363Z" fill="white"/>
<path d="M0 8.47862L14.7405 0L19.4639 2.81196L4.84257 11.3333L0 8.47862Z" fill="#EB001B"/>
<path d="M0 14.3163V8.47867L4.84257 11.3334L4.87661 17.0086L0 14.3163Z" fill="#FF5F00"/>
<path d="M4.8772 17.0086L9.73679 14.4359V25.6923L4.8772 22.8291V17.0086Z" fill="#F79E1B"/>
<path d="M60.7488 12.9658C60.3488 12.9658 60.0425 12.8547 59.8212 12.6324C59.5999 12.4102 59.4893 12.1196 59.4893 11.7521C59.4893 11.3846 59.5999 11.094 59.8212 10.8718C60.0425 10.6495 60.3488 10.5384 60.7488 10.5384C61.1318 10.5384 61.4382 10.6495 61.6595 10.8718C61.8808 11.094 61.9914 11.3846 61.9914 11.7521C61.9914 12.1196 61.8808 12.4102 61.6595 12.6324C61.4382 12.8547 61.1318 12.9658 60.7488 12.9658Z" fill="#EB001B"/>
</svg>