<svg width="28" height="28" viewBox="0 0 28 28" fill="none" xmlns="http://www.w3.org/2000/svg">
<path d="M3.9375 26.6875H24.0625V6.5625L18.8125 1.3125H3.9375V26.6875Z" fill="#ECEFF1"/>
<path d="M24.0625 27.125H3.9375C3.82147 27.125 3.71019 27.0789 3.62814 26.9969C3.54609 26.9148 3.5 26.8035 3.5 26.6875V1.3125C3.5 1.19647 3.54609 1.08519 3.62814 1.00314C3.71019 0.921094 3.82147 0.875 3.9375 0.875H18.8125C18.9285 0.875 19.0398 0.921094 19.1219 1.00314C19.2039 1.08519 19.25 1.19647 19.25 1.3125C19.25 1.42853 19.2039 1.53981 19.1219 1.62186C19.0398 1.70391 18.9285 1.75 18.8125 1.75H4.375V26.25H23.625V6.5625C23.625 6.44647 23.6711 6.33519 23.7531 6.25314C23.8352 6.17109 23.9465 6.125 24.0625 6.125C24.1785 6.125 24.2898 6.17109 24.3719 6.25314C24.4539 6.33519 24.5 6.44647 24.5 6.5625V26.6875C24.5 26.8035 24.4539 26.9148 24.3719 26.9969C24.2898 27.0789 24.1785 27.125 24.0625 27.125Z" fill="#455A64"/>
<path d="M18.8125 6.5625V1.3125L24.0441 6.5625H18.8125Z" fill="#1DE9B6"/>
<path d="M18.8125 1.3125L24.0441 6.5625H18.8125V3.5" fill="#1DE9B6"/>
<path d="M18.8125 1.3125L24.0441 6.5625H18.8125V3.5" stroke="#455A64" stroke-width="2" stroke-miterlimit="10" stroke-linecap="round" stroke-linejoin="round"/>
<path d="M13.5625 10.5H12.6875C12.5715 10.5 12.4602 10.4539 12.3781 10.3719C12.2961 10.2898 12.25 10.1785 12.25 10.0625C12.25 9.94647 12.2961 9.83519 12.3781 9.75314C12.4602 9.67109 12.5715 9.625 12.6875 9.625H13.5625C13.6785 9.625 13.7898 9.67109 13.8719 9.75314C13.9539 9.83519 14 9.94647 14 10.0625C14 10.1785 13.9539 10.2898 13.8719 10.3719C13.7898 10.4539 13.6785 10.5 13.5625 10.5ZM15.3125 8.75H12.6875C12.5715 8.75 12.4602 8.70391 12.3781 8.62186C12.2961 8.53981 12.25 8.42853 12.25 8.3125C12.25 8.19647 12.2961 8.08519 12.3781 8.00314C12.4602 7.92109 12.5715 7.875 12.6875 7.875H15.3125C15.4285 7.875 15.5398 7.92109 15.6219 8.00314C15.7039 8.08519 15.75 8.19647 15.75 8.3125C15.75 8.42853 15.7039 8.53981 15.6219 8.62186C15.5398 8.70391 15.4285 8.75 15.3125 8.75ZM22.3125 8.75H19.6875C19.5715 8.75 19.4602 8.70391 19.3781 8.62186C19.2961 8.53981 19.25 8.42853 19.25 8.3125C19.25 8.19647 19.2961 8.08519 19.3781 8.00314C19.4602 7.92109 19.5715 7.875 19.6875 7.875H22.3125C22.4285 7.875 22.5398 7.92109 22.6219 8.00314C22.7039 8.08519 22.75 8.19647 22.75 8.3125C22.75 8.42853 22.7039 8.53981 22.6219 8.62186C22.5398 8.70391 22.4285 8.75 22.3125 8.75ZM17.9375 12.25H10.0625C9.94647 12.25 9.83519 12.2039 9.75314 12.1219C9.67109 12.0398 9.625 11.9285 9.625 11.8125C9.625 11.6965 9.67109 11.5852 9.75314 11.5031C9.83519 11.4211 9.94647 11.375 10.0625 11.375H17.9375C18.0535 11.375 18.1648 11.4211 18.2469 11.5031C18.3289 11.5852 18.375 11.6965 18.375 11.8125C18.375 11.9285 18.3289 12.0398 18.2469 12.1219C18.1648 12.2039 18.0535 12.25 17.9375 12.25ZM10.0625 14H5.6875C5.57147 14 5.46019 13.9539 5.37814 13.8719C5.29609 13.7898 5.25 13.6785 5.25 13.5625C5.25 13.4465 5.29609 13.3352 5.37814 13.2531C5.46019 13.1711 5.57147 13.125 5.6875 13.125H10.0625C10.1785 13.125 10.2898 13.1711 10.3719 13.2531C10.4539 13.3352 10.5 13.4465 10.5 13.5625C10.5 13.6785 10.4539 13.7898 10.3719 13.8719C10.2898 13.9539 10.1785 14 10.0625 14ZM8.3125 12.25H5.6875C5.57147 12.25 5.46019 12.2039 5.37814 12.1219C5.29609 12.0398 5.25 11.9285 5.25 11.8125C5.25 11.6965 5.29609 11.5852 5.37814 11.5031C5.46019 11.4211 5.57147 11.375 5.6875 11.375H8.3125C8.42853 11.375 8.53981 11.4211 8.62186 11.5031C8.70391 11.5852 8.75 11.6965 8.75 11.8125C8.75 11.9285 8.70391 12.0398 8.62186 12.1219C8.53981 12.2039 8.42853 12.25 8.3125 12.25ZM17.0625 5.25H15.3125C15.1965 5.25 15.0852 5.20391 15.0031 5.12186C14.9211 5.03981 14.875 4.92853 14.875 4.8125C14.875 4.69647 14.9211 4.58519 15.0031 4.50314C15.0852 4.42109 15.1965 4.375 15.3125 4.375H17.0625C17.1785 4.375 17.2898 4.42109 17.3719 4.50314C17.4539 4.58519 17.5 4.69647 17.5 4.8125C17.5 4.92853 17.4539 5.03981 17.3719 5.12186C17.2898 5.20391 17.1785 5.25 17.0625 5.25ZM17.0625 7H12.6875C12.5715 7 12.4602 6.95391 12.3781 6.87186C12.2961 6.78981 12.25 6.67853 12.25 6.5625C12.25 6.44647 12.2961 6.33519 12.3781 6.25314C12.4602 6.17109 12.5715 6.125 12.6875 6.125H17.0625C17.1785 6.125 17.2898 6.17109 17.3719 6.25314C17.4539 6.33519 17.5 6.44647 17.5 6.5625C17.5 6.67853 17.4539 6.78981 17.3719 6.87186C17.2898 6.95391 17.1785 7 17.0625 7ZM13.5625 5.25H12.6875C12.5715 5.25 12.4602 5.20391 12.3781 5.12186C12.2961 5.03981 12.25 4.92853 12.25 4.8125C12.25 4.69647 12.2961 4.58519 12.3781 4.50314C12.4602 4.42109 12.5715 4.375 12.6875 4.375H13.5625C13.6785 4.375 13.7898 4.42109 13.8719 4.50314C13.9539 4.58519 14 4.69647 14 4.8125C14 4.92853 13.9539 5.03981 13.8719 5.12186C13.7898 5.20391 13.6785 5.25 13.5625 5.25ZM22.3125 10.5H15.3125C15.1965 10.5 15.0852 10.4539 15.0031 10.3719C14.9211 10.2898 14.875 10.1785 14.875 10.0625C14.875 9.94647 14.9211 9.83519 15.0031 9.75314C15.0852 9.67109 15.1965 9.625 15.3125 9.625H22.3125C22.4285 9.625 22.5398 9.67109 22.6219 9.75314C22.7039 9.83519 22.75 9.94647 22.75 10.0625C22.75 10.1785 22.7039 10.2898 22.6219 10.3719C22.5398 10.4539 22.4285 10.5 22.3125 10.5ZM17.9375 8.75H17.0625C16.9465 8.75 16.8352 8.70391 16.7531 8.62186C16.6711 8.53981 16.625 8.42853 16.625 8.3125C16.625 8.19647 16.6711 8.08519 16.7531 8.00314C16.8352 7.92109 16.9465 7.875 17.0625 7.875H17.9375C18.0535 7.875 18.1648 7.92109 18.2469 8.00314C18.3289 8.08519 18.375 8.19647 18.375 8.3125C18.375 8.42853 18.3289 8.53981 18.2469 8.62186C18.1648 8.70391 18.0535 8.75 17.9375 8.75ZM22.3125 12.25H19.6875C19.5715 12.25 19.4602 12.2039 19.3781 12.1219C19.2961 12.0398 19.25 11.9285 19.25 11.8125C19.25 11.6965 19.2961 11.5852 19.3781 11.5031C19.4602 11.4211 19.5715 11.375 19.6875 11.375H22.3125C22.4285 11.375 22.5398 11.4211 22.6219 11.5031C22.7039 11.5852 22.75 11.6965 22.75 11.8125C22.75 11.9285 22.7039 12.0398 22.6219 12.1219C22.5398 12.2039 22.4285 12.25 22.3125 12.25Z" fill="#455A64"/>
<path d="M5.6875 4.8125H10.0625V9.1875H5.6875V4.8125Z" fill="#CFD8DC"/>
<path d="M10.0625 9.625H5.6875C5.57147 9.625 5.46019 9.57891 5.37814 9.49686C5.29609 9.41481 5.25 9.30353 5.25 9.1875V4.8125C5.25 4.69647 5.29609 4.58519 5.37814 4.50314C5.46019 4.42109 5.57147 4.375 5.6875 4.375H10.0625C10.1785 4.375 10.2898 4.42109 10.3719 4.50314C10.4539 4.58519 10.5 4.69647 10.5 4.8125V9.1875C10.5 9.30353 10.4539 9.41481 10.3719 9.49686C10.2898 9.57891 10.1785 9.625 10.0625 9.625ZM6.125 8.75H9.625V5.25H6.125V8.75Z" fill="#455A64"/>
<path d="M7.69213 25.375H10.4895C10.2126 24.833 10.0663 24.2337 10.0625 23.625C10.0625 22.5807 10.4773 21.5792 11.2158 20.8408C11.9542 20.1023 12.9557 19.6875 14 19.6875C15.0443 19.6875 16.0458 20.1023 16.7842 20.8408C17.5227 21.5792 17.9375 22.5807 17.9375 23.625C17.9375 24.2567 17.7747 24.8456 17.5105 25.375H20.3079C20.3577 25.1974 20.4111 25.0224 20.4452 24.8395L22.3125 24.5V22.75L20.4452 22.4105C20.3416 21.8604 20.1672 21.326 19.9264 20.8206L21.2389 19.4469L20.2099 18.0311L18.4975 18.8554C18.0912 18.4695 17.6371 18.1373 17.1465 17.8666L17.4002 15.9897L15.736 15.449L14.8356 17.122C14.5618 17.0861 14.2835 17.0625 14 17.0625C13.7165 17.0625 13.4383 17.0861 13.1644 17.1211L12.2631 15.4481L10.5989 15.9889L10.8526 17.8657C10.3621 18.1362 9.90835 18.4685 9.5025 18.8545L7.78925 18.0302L6.76025 19.446L8.07275 20.8197C7.83203 21.3251 7.65763 21.8595 7.55388 22.4096L5.6875 22.75V24.5L7.55475 24.8395C7.58887 25.0224 7.64225 25.1974 7.69213 25.375Z" fill="#FFF176"/>
<path d="M10.2856 25.3741C10.1951 25.3741 10.1068 25.3461 10.0329 25.2939C9.95896 25.2418 9.90297 25.168 9.87262 25.0827C9.64062 24.4227 9.5701 23.7166 9.66698 23.0237C9.76386 22.3308 10.0253 21.6712 10.4294 21.1001C10.8336 20.529 11.3687 20.0629 11.9899 19.7411C12.6111 19.4192 13.3004 19.2508 14 19.25C14.6971 19.2511 15.3839 19.4186 16.0033 19.7386C16.6226 20.0586 17.1567 20.5217 17.561 21.0896C17.9653 21.6575 18.2283 22.3137 18.328 23.0036C18.4278 23.6936 18.3614 24.3974 18.1344 25.0565C18.1155 25.1107 18.0862 25.1607 18.048 25.2036C18.0099 25.2465 17.9636 25.2815 17.9119 25.3065C17.8603 25.3315 17.8042 25.3461 17.7468 25.3495C17.6895 25.3528 17.6321 25.3448 17.5779 25.326C17.5236 25.3071 17.4736 25.2778 17.4307 25.2396C17.3879 25.2015 17.3529 25.1552 17.3279 25.1036C17.3028 25.0519 17.2882 24.9958 17.2849 24.9385C17.2816 24.8811 17.2895 24.8237 17.3084 24.7695C17.49 24.2422 17.5431 23.6791 17.4633 23.1271C17.3835 22.5751 17.173 22.0501 16.8494 21.5958C16.5259 21.1416 16.0985 20.7711 15.6029 20.5153C15.1073 20.2595 14.5577 20.1256 14 20.125C13.4402 20.1256 12.8888 20.2602 12.3918 20.5177C11.8948 20.7752 11.4667 21.1481 11.1434 21.605C10.8201 22.062 10.611 22.5897 10.5336 23.1441C10.4563 23.6985 10.5128 24.2634 10.6986 24.7914C10.7219 24.8574 10.7289 24.928 10.7192 24.9973C10.7095 25.0666 10.6833 25.1325 10.6429 25.1896C10.6024 25.2467 10.5489 25.2932 10.4867 25.3253C10.4245 25.3574 10.3556 25.3742 10.2856 25.3741ZM20.4452 25.277C20.3366 25.2758 20.2322 25.2343 20.1524 25.1606C20.0726 25.0868 20.023 24.986 20.0133 24.8778C20.0036 24.7695 20.0345 24.6615 20.0999 24.5748C20.1653 24.488 20.2606 24.4286 20.3674 24.4081L21.875 24.1351V23.1157L20.3674 22.8419C20.2802 22.826 20.1999 22.7841 20.1371 22.7216C20.0743 22.6591 20.0319 22.579 20.0156 22.4919C19.9194 21.9789 19.7567 21.4806 19.5318 21.0096C19.4937 20.9296 19.4809 20.8399 19.4949 20.7524C19.509 20.6649 19.5493 20.5837 19.6105 20.5196L20.671 19.4092L20.0716 18.5841L18.6874 19.25C18.6076 19.2884 18.518 19.3016 18.4305 19.2881C18.3431 19.2745 18.2618 19.2346 18.1974 19.1739C17.818 18.8136 17.3943 18.5031 16.9365 18.2499C16.8589 18.2075 16.796 18.1426 16.7561 18.0637C16.7162 17.9848 16.7013 17.8956 16.7134 17.808L16.9181 16.2934L15.9478 15.9784L15.2206 17.3294C15.1785 17.4072 15.1138 17.4704 15.0352 17.5109C14.9565 17.5513 14.8674 17.567 14.7796 17.556C14.2617 17.4904 13.7375 17.4904 13.2195 17.556C13.1317 17.5669 13.0427 17.5511 12.9641 17.5107C12.8854 17.4703 12.8207 17.4071 12.7785 17.3294L12.0505 15.9784L11.0801 16.2934L11.2849 17.808C11.2967 17.8956 11.2816 17.9846 11.2418 18.0635C11.202 18.1424 11.1392 18.2074 11.0618 18.2499C10.6038 18.5022 10.1803 18.8124 9.80175 19.173C9.73724 19.2336 9.65595 19.2732 9.56852 19.2868C9.48109 19.3004 9.39159 19.2873 9.31175 19.2491L7.9275 18.5832L7.32812 19.4084L8.38862 20.5187C8.4498 20.5827 8.49015 20.6636 8.50437 20.7509C8.51858 20.8383 8.50599 20.9279 8.46825 21.0079C8.24365 21.4793 8.08101 21.9778 7.98438 22.491C7.96808 22.5781 7.92573 22.6582 7.86292 22.7207C7.80011 22.7832 7.7198 22.8251 7.63262 22.841L6.125 23.1149V24.1342L7.63262 24.4081C7.68916 24.4184 7.74311 24.4397 7.79141 24.4709C7.8397 24.502 7.88139 24.5423 7.9141 24.5896C7.9468 24.6368 7.96988 24.6901 7.98201 24.7462C7.99415 24.8024 7.9951 24.8604 7.98481 24.9169C7.97453 24.9735 7.95321 25.0274 7.92207 25.0757C7.89094 25.124 7.85059 25.1657 7.80335 25.1984C7.7561 25.2311 7.70287 25.2542 7.64671 25.2663C7.59054 25.2785 7.53253 25.2794 7.476 25.2691L5.60875 24.9305C5.50803 24.9121 5.41696 24.8589 5.3514 24.7802C5.28585 24.7016 5.24997 24.6024 5.25 24.5V22.75C5.25 22.6475 5.28601 22.5482 5.35174 22.4695C5.41747 22.3908 5.50874 22.3377 5.60962 22.3195L7.18725 22.0325C7.2765 21.6527 7.399 21.2774 7.55388 20.9099L6.44437 19.7487C6.37366 19.6747 6.33117 19.5782 6.32429 19.476C6.31742 19.3738 6.3466 19.2725 6.40675 19.1896L7.43575 17.7739C7.49581 17.6909 7.58315 17.6316 7.68249 17.6065C7.78182 17.5814 7.88683 17.592 7.97913 17.6365L9.42637 18.333C9.72394 18.0738 10.0427 17.8399 10.3793 17.6339L10.1649 16.0475C10.1513 15.946 10.1737 15.843 10.2282 15.7563C10.2827 15.6697 10.3659 15.6049 10.4633 15.5732L12.1275 15.0325C12.2249 15.0009 12.3304 15.0045 12.4255 15.0425C12.5206 15.0805 12.5993 15.1507 12.6481 15.2407L13.4094 16.6539C13.8023 16.618 14.1977 16.618 14.5906 16.6539L15.351 15.2416C15.3999 15.1516 15.4786 15.0815 15.5737 15.0433C15.6687 15.0052 15.7741 15.0013 15.8716 15.0325L17.5359 15.5732C17.6332 15.6049 17.7164 15.6697 17.7709 15.7563C17.8255 15.843 17.8479 15.946 17.8342 16.0475L17.6199 17.6339C17.9515 17.836 18.2709 18.0705 18.5728 18.333L20.02 17.6365C20.1123 17.5918 20.2173 17.5811 20.3167 17.6062C20.4161 17.6314 20.5034 17.6907 20.5634 17.7739L21.5924 19.1896C21.6525 19.2725 21.6817 19.3738 21.6748 19.476C21.668 19.5782 21.6255 19.6747 21.5548 19.7487L20.4452 20.9107C20.6001 21.2765 20.7235 21.6527 20.8119 22.0334L22.3895 22.3204C22.4905 22.3381 22.5821 22.3909 22.6481 22.4695C22.714 22.5481 22.7501 22.6474 22.75 22.75V24.5C22.75 24.6025 22.714 24.7018 22.6483 24.7805C22.5825 24.8591 22.4913 24.9122 22.3904 24.9305L20.5231 25.2691C20.4975 25.2743 20.4714 25.277 20.4452 25.277Z" fill="#455A64"/>
</svg>
