<svg width="28" height="28" viewBox="0 0 28 28" fill="none" xmlns="http://www.w3.org/2000/svg">
<path d="M26.6875 10.5V3.0625C26.6875 2.58125 26.2938 2.1875 25.8125 2.1875H2.1875C1.70625 2.1875 1.3125 2.58125 1.3125 3.0625V23.1875C1.3125 23.6688 1.70625 24.0625 2.1875 24.0625H25.8125C26.2938 24.0625 26.6875 23.6688 26.6875 23.1875V21.875V10.5Z" fill="#ECEFF1"/>
<path d="M1.74925 5.25022V3.06272C1.74925 2.57885 1.70287 2.62522 2.18675 2.62522H25.8117C26.2956 2.62522 26.2492 2.57885 26.2492 3.06272V5.25022H1.74925Z" fill="#A9E4FF"/>
<path d="M1.75 2.625H26.25V3.5H1.75V2.625Z" fill="white"/>
<path d="M26.6875 6.125H1.3125C1.19647 6.125 1.08519 6.07891 1.00314 5.99686C0.921094 5.91481 0.875 5.80353 0.875 5.6875V3.0625C0.875 2.33887 1.46387 1.75 2.1875 1.75H25.8125C26.5361 1.75 27.125 2.33887 27.125 3.0625V5.6875C27.125 5.80353 27.0789 5.91481 26.9969 5.99686C26.9148 6.07891 26.8035 6.125 26.6875 6.125ZM1.75 5.25H26.25V3.0625C26.25 2.82187 26.0531 2.625 25.8125 2.625H2.1875C1.94687 2.625 1.75 2.82187 1.75 3.0625V5.25Z" fill="#455A64"/>
<path d="M6.5625 4.375C6.80412 4.375 7 4.17912 7 3.9375C7 3.69588 6.80412 3.5 6.5625 3.5C6.32088 3.5 6.125 3.69588 6.125 3.9375C6.125 4.17912 6.32088 4.375 6.5625 4.375Z" fill="#455A64"/>
<path d="M4.8125 4.375C5.05412 4.375 5.25 4.17912 5.25 3.9375C5.25 3.69588 5.05412 3.5 4.8125 3.5C4.57088 3.5 4.375 3.69588 4.375 3.9375C4.375 4.17912 4.57088 4.375 4.8125 4.375Z" fill="#455A64"/>
<path d="M3.0625 4.375C3.30412 4.375 3.5 4.17912 3.5 3.9375C3.5 3.69588 3.30412 3.5 3.0625 3.5C2.82088 3.5 2.625 3.69588 2.625 3.9375C2.625 4.17912 2.82088 4.375 3.0625 4.375Z" fill="#455A64"/>
<path d="M5.6875 10.5H3.0625C2.94647 10.5 2.83519 10.4539 2.75314 10.3719C2.67109 10.2898 2.625 10.1785 2.625 10.0625C2.625 9.94647 2.67109 9.83519 2.75314 9.75314C2.83519 9.67109 2.94647 9.625 3.0625 9.625H5.6875C5.80353 9.625 5.91481 9.67109 5.99686 9.75314C6.07891 9.83519 6.125 9.94647 6.125 10.0625C6.125 10.1785 6.07891 10.2898 5.99686 10.3719C5.91481 10.4539 5.80353 10.5 5.6875 10.5ZM8.3125 8.75H3.0625C2.94647 8.75 2.83519 8.70391 2.75314 8.62186C2.67109 8.53981 2.625 8.42853 2.625 8.3125C2.625 8.19647 2.67109 8.08519 2.75314 8.00314C2.83519 7.92109 2.94647 7.875 3.0625 7.875H8.3125C8.42853 7.875 8.53981 7.92109 8.62186 8.00314C8.70391 8.08519 8.75 8.19647 8.75 8.3125C8.75 8.42853 8.70391 8.53981 8.62186 8.62186C8.53981 8.70391 8.42853 8.75 8.3125 8.75Z" fill="#455A64"/>
<path d="M1.75 6.125H26.25V7H1.75V6.125Z" fill="white"/>
<path d="M5.6875 24.5H2.1875C1.46387 24.5 0.875 23.9111 0.875 23.1875V3.0625C0.875 2.33887 1.46387 1.75 2.1875 1.75H25.8125C26.5361 1.75 27.125 2.33887 27.125 3.0625V10.5C27.125 10.616 27.0789 10.7273 26.9969 10.8094C26.9148 10.8914 26.8035 10.9375 26.6875 10.9375C26.5715 10.9375 26.4602 10.8914 26.3781 10.8094C26.2961 10.7273 26.25 10.616 26.25 10.5V3.0625C26.25 2.94647 26.2039 2.83519 26.1219 2.75314C26.0398 2.67109 25.9285 2.625 25.8125 2.625H2.1875C2.07147 2.625 1.96019 2.67109 1.87814 2.75314C1.79609 2.83519 1.75 2.94647 1.75 3.0625V23.1875C1.75 23.3035 1.79609 23.4148 1.87814 23.4969C1.96019 23.5789 2.07147 23.625 2.1875 23.625H5.6875C5.80353 23.625 5.91481 23.6711 5.99686 23.7531C6.07891 23.8352 6.125 23.9465 6.125 24.0625C6.125 24.1785 6.07891 24.2898 5.99686 24.3719C5.91481 24.4539 5.80353 24.5 5.6875 24.5Z" fill="#455A64"/>
<path d="M26.6875 23.1875V13.3586C25.9972 12.2336 25.0619 11.2789 23.9514 10.5656C23.8562 10.5051 23.7413 10.4836 23.6306 10.5056C23.52 10.5276 23.4221 10.5914 23.3573 10.6838L18.6891 17.3521L17.7292 16.5821L21.4638 10.7266C21.5261 10.6289 21.5471 10.5104 21.5222 10.3972C21.4972 10.284 21.4284 10.1854 21.3308 10.1229C19.9258 9.2245 18.2926 8.74803 16.625 8.75001C16.509 8.75001 16.3977 8.7961 16.3156 8.87815C16.2336 8.96019 16.1875 9.07147 16.1875 9.18751C16.1875 9.30354 16.2336 9.41482 16.3156 9.49687C16.3977 9.57891 16.509 9.62501 16.625 9.62501V10.5368C16.509 10.5368 16.3977 10.5828 16.3156 10.6649C16.2336 10.7469 16.1875 10.8582 16.1875 10.9743V15.3458L15.75 14.9958L15.3125 10.5C15.3123 10.4407 15.3002 10.382 15.2769 10.3275C15.2536 10.2729 15.2196 10.2236 15.1769 10.1824C15.0884 10.1023 14.9724 10.0594 14.8531 10.0625C10.2043 10.3031 6.5625 14.1461 6.5625 18.8125C6.5625 20.783 7.22575 22.5978 8.33 24.0625H25.8125C26.2938 24.0625 26.6875 23.6688 26.6875 23.1875Z" fill="#CFD8DC"/>
<path d="M22.4035 9.62149L17.5 16.625L25.802 19.3209C26.0997 18.4533 26.2511 17.5422 26.25 16.625C26.25 13.6797 24.7135 11.0985 22.4035 9.62149Z" fill="white"/>
<path d="M17.9375 16.625L25.802 19.3209C26.0997 18.4533 26.2511 17.5422 26.25 16.625C26.251 15.5163 26.0291 14.4188 25.5976 13.3975C25.166 12.3763 24.5336 11.4522 23.7379 10.6802L17.9375 16.625Z" fill="#FFF176"/>
<path d="M25.8013 19.7586C25.7556 19.7586 25.7102 19.7515 25.6666 19.7376L17.3646 17.0417C17.2996 17.0206 17.2405 16.9845 17.1919 16.9364C17.1434 16.8882 17.1068 16.8294 17.0851 16.7646C17.0634 16.6997 17.0572 16.6307 17.067 16.5631C17.0768 16.4954 17.1023 16.431 17.1415 16.375L22.045 9.37149C22.1096 9.27895 22.2076 9.21499 22.3183 9.19297C22.429 9.17096 22.544 9.19259 22.6391 9.25336C23.8809 10.0409 24.9033 11.1298 25.611 12.4187C26.3188 13.7077 26.6889 15.1548 26.6868 16.6252C26.6878 17.591 26.5284 18.5502 26.2152 19.4637C26.1855 19.5499 26.1297 19.6246 26.0555 19.6774C25.9813 19.7303 25.8924 19.7587 25.8013 19.7586ZM18.1967 16.3916L25.5161 18.7681C25.7134 18.0709 25.8129 17.3498 25.8118 16.6252C25.8118 14.0694 24.5868 11.7069 22.514 10.2255L18.1967 16.3916Z" fill="#455A64"/>
<path d="M13.5625 17.5V9.1875C9.17525 9.415 5.6875 13.055 5.6875 17.5C5.6875 19.7046 6.56328 21.8189 8.12218 23.3778C9.68107 24.9367 11.7954 25.8125 14 25.8125C17.647 25.8125 20.7375 23.4605 21.8575 20.1932L13.5625 17.5Z" fill="white"/>
<path d="M21.8575 20.1932L13.5625 17.5V10.5446C9.38525 10.983 6.125 14.518 6.125 18.8125C6.125 19.5029 6.21775 20.1696 6.377 20.8101C7.02195 22.2961 8.08704 23.5612 9.44135 24.4499C10.7957 25.3386 12.3801 25.8122 14 25.8125C17.647 25.8125 20.7375 23.4605 21.8575 20.1932Z" fill="#1DE9B6"/>
<path d="M14 26.25C9.17525 26.25 5.25 22.3248 5.25 17.5C5.25 12.8345 8.89088 8.99151 13.5406 8.75001C13.6599 8.74682 13.7759 8.78975 13.8644 8.86989C13.9071 8.91107 13.9411 8.9604 13.9644 9.01496C13.9877 9.06952 13.9998 9.12819 14 9.18751V17.1824L21.9931 19.7776C22.0483 19.7956 22.0994 19.8244 22.1434 19.8623C22.1873 19.9002 22.2233 19.9465 22.2492 19.9985C22.2751 20.0504 22.2904 20.107 22.2942 20.165C22.298 20.2229 22.2903 20.281 22.2714 20.3359C21.6809 22.0607 20.5663 23.5579 19.0833 24.6182C17.6003 25.6786 15.8231 26.2491 14 26.25ZM13.125 9.66176C9.16475 10.0984 6.125 13.4558 6.125 17.5C6.125 21.8418 9.65738 25.375 14 25.375C15.5649 25.3741 17.0941 24.9068 18.3922 24.0328C19.6902 23.1587 20.6984 21.9177 21.2879 20.468L13.4278 17.9156C13.3398 17.8873 13.2631 17.8318 13.2087 17.7571C13.1543 17.6824 13.125 17.5924 13.125 17.5V9.66176Z" fill="#455A64"/>
<path d="M15.3125 16.1875V7.87501C16.8964 7.87228 18.4477 8.3245 19.782 9.17789L15.3125 16.1875Z" fill="white"/>
<path d="M15.3125 15.75L16.7869 8.00449C16.7869 8.00449 18.886 8.60561 19.7829 9.17786L15.3125 15.75Z" fill="#FF8A80"/>
<path d="M15.3125 16.625C15.1965 16.625 15.0852 16.5789 15.0031 16.4969C14.9211 16.4148 14.875 16.3035 14.875 16.1875V9.66175C14.875 9.54572 14.9211 9.43444 15.0031 9.35239C15.0852 9.27034 15.1965 9.22425 15.3125 9.22425C15.4285 9.22425 15.5398 9.27034 15.6219 9.35239C15.7039 9.43444 15.75 9.54572 15.75 9.66175V14.6886L19.1721 9.32225C17.9941 8.6587 16.6646 8.31087 15.3125 8.3125C15.1965 8.3125 15.0852 8.26641 15.0031 8.18436C14.9211 8.10231 14.875 7.99103 14.875 7.875C14.875 7.75897 14.9211 7.64769 15.0031 7.56564C15.0852 7.48359 15.1965 7.4375 15.3125 7.4375C16.9864 7.4375 18.613 7.91175 20.0183 8.8095C20.1159 8.87199 20.1847 8.97066 20.2097 9.08386C20.2346 9.19706 20.2136 9.31553 20.1513 9.41325L15.6818 16.4229C15.6422 16.4849 15.5876 16.5359 15.523 16.5713C15.4585 16.6066 15.3861 16.6251 15.3125 16.625Z" fill="#455A64"/>
</svg>
