<svg width="20" height="20" viewBox="0 0 20 20" fill="none" xmlns="http://www.w3.org/2000/svg">
<g clip-path="url(#clip0_0_2956)">
<path   d="M9.36578 20C9.09276 19.9991 8.82321 19.9388 8.57578 19.8234C8.17162 19.6434 7.84702 19.3221 7.66291 18.9198C7.4788 18.5175 7.44781 18.0619 7.57578 17.6384L8.87661 13.3334H5.81161C5.42111 13.3338 5.03593 13.2428 4.68695 13.0676C4.33796 12.8924 4.03486 12.6379 3.80195 12.3245C3.56905 12.011 3.4128 11.6474 3.34574 11.2627C3.27867 10.878 3.30266 10.483 3.41578 10.1092L5.93578 1.77588C6.08938 1.26044 6.40602 0.808729 6.83815 0.488533C7.27029 0.168338 7.79462 -0.00306802 8.33244 4.15744e-05H11.4099C11.7597 0.000334193 12.1043 0.0853132 12.4141 0.247716C12.7239 0.410119 12.9898 0.645118 13.189 0.932628C13.3882 1.22014 13.5149 1.55161 13.5582 1.89872C13.6014 2.24583 13.56 2.59825 13.4374 2.92588L12.0349 6.66671H14.1658C14.62 6.66667 15.0656 6.79038 15.4548 7.02455C15.844 7.25871 16.1621 7.59449 16.3748 7.9958C16.5875 8.39711 16.6869 8.8488 16.6623 9.30234C16.6376 9.75588 16.4899 10.1941 16.2349 10.57L10.9016 19.1534C10.7367 19.4116 10.5098 19.6244 10.2415 19.7723C9.97321 19.9202 9.67213 19.9985 9.36578 20ZM8.33244 1.66671C8.15348 1.66653 7.97922 1.72398 7.83544 1.83053C7.69166 1.93709 7.58601 2.08711 7.53411 2.25838L5.01411 10.5917C4.97638 10.7162 4.96833 10.8478 4.9906 10.976C5.01287 11.1042 5.06484 11.2254 5.14236 11.3299C5.21988 11.4344 5.32078 11.5193 5.437 11.5778C5.55321 11.6362 5.68151 11.6667 5.81161 11.6667H9.99911C10.1292 11.6667 10.2575 11.6972 10.3737 11.7557C10.4899 11.8142 10.5908 11.899 10.6684 12.0035C10.7459 12.108 10.7979 12.2292 10.8201 12.3574C10.8424 12.4856 10.8343 12.6172 10.7966 12.7417L9.17411 18.11C9.16661 18.1298 9.16329 18.1509 9.16437 18.172C9.16545 18.1931 9.1709 18.2137 9.18038 18.2326C9.18986 18.2515 9.20316 18.2682 9.21944 18.2817C9.23572 18.2952 9.25462 18.3051 9.27494 18.3109C9.29337 18.3227 9.31406 18.3305 9.33569 18.3338C9.35731 18.3372 9.3794 18.3359 9.40052 18.3302C9.42164 18.3244 9.44132 18.3144 9.4583 18.3006C9.47528 18.2868 9.48918 18.2695 9.49911 18.25L14.8324 9.66671C14.9257 9.54021 14.9813 9.38992 14.9928 9.23317C15.0043 9.07643 14.9712 8.91963 14.8974 8.78088C14.8291 8.64571 14.7244 8.53226 14.5952 8.45322C14.4659 8.37418 14.3173 8.33269 14.1658 8.33338H10.8324C10.6978 8.33346 10.5651 8.3009 10.4457 8.23848C10.3264 8.17606 10.2239 8.08564 10.1472 7.97496C10.0704 7.86429 10.0216 7.73666 10.005 7.60301C9.98833 7.46936 10.0043 7.33366 10.0516 7.20754L11.8766 2.34088C11.9046 2.26542 11.9141 2.18431 11.904 2.10445C11.894 2.02458 11.8649 1.94831 11.819 1.88213C11.7732 1.81594 11.7121 1.7618 11.6409 1.72429C11.5697 1.68679 11.4904 1.66703 11.4099 1.66671H8.33244Z" fill="white"/>
</g>
<defs>
<clipPath id="clip0_0_2956">
<rect width="20" height="20" fill="white"/>
</clipPath>
</defs>
</svg>
