<svg width="20" height="20" viewBox="0 0 20 20" fill="none" xmlns="http://www.w3.org/2000/svg">
<g clip-path="url(#clip0_0_2945)">
<path d="M3.33276 14.1668C3.33276 14.8299 3.59616 15.4657 4.065 15.9346C4.53384 16.4034 5.16972 16.6668 5.83276 16.6668" stroke="#FF5F00" stroke-width="1.5" stroke-linecap="round" stroke-linejoin="round"/>
<path d="M12.3367 5.30838L14.6558 2.98838C14.8106 2.83358 14.9943 2.71078 15.1965 2.62698C15.3987 2.54319 15.6154 2.50004 15.8343 2.5C16.0532 2.49996 16.2699 2.54303 16.4721 2.62676C16.6744 2.71048 16.8581 2.83322 17.0129 2.98796C17.1677 3.1427 17.2905 3.32642 17.3743 3.52862C17.4581 3.73081 17.5013 3.94754 17.5013 4.16642C17.5013 4.38529 17.4583 4.60203 17.3745 4.80426C17.2908 5.00649 17.1681 5.19025 17.0133 5.34504L14.6933 7.66671" stroke="white" stroke-width="1.5" stroke-linecap="round" stroke-linejoin="round"/>
<path d="M13.7542 6.24583C14.5261 7.01761 14.9718 8.05657 14.9991 9.14777C15.0264 10.239 14.6332 11.2989 13.9009 12.1083L13.7542 12.2617L12.1984 13.8175C11.7004 14.315 11.4003 14.9767 11.3542 15.6792L11.3475 15.8708V16.6492C11.3475 16.9217 11.2392 17.1825 11.0475 17.375C10.9772 17.4458 10.8843 17.4896 10.785 17.4987C10.6856 17.5078 10.5862 17.4817 10.5042 17.425L10.4459 17.375L2.62504 9.55499C2.58548 9.51552 2.55409 9.46863 2.53268 9.41701C2.51127 9.36539 2.50024 9.31005 2.50024 9.25416C2.50024 9.19828 2.51127 9.14294 2.53268 9.09132C2.55409 9.0397 2.58548 8.99281 2.62504 8.95333C2.79004 8.78833 3.00504 8.68499 3.23504 8.65916L3.35087 8.6525H4.12837C4.83504 8.6525 5.5142 8.39499 6.04254 7.93249L6.18254 7.80166L7.73837 6.24583L7.8717 6.11833C8.67978 5.37759 9.7426 4.97737 10.8386 5.00112C11.9345 5.02488 12.979 5.47077 13.7542 6.24583Z" stroke="white" stroke-width="1.5" stroke-linecap="round" stroke-linejoin="round"/>
</g>
<defs>
<clipPath id="clip0_0_2945">
<rect width="20" height="20" fill="white"/>
</clipPath>
</defs>
</svg>
