<svg width="20" height="20" viewBox="0 0 20 20" fill="none" xmlns="http://www.w3.org/2000/svg">
<g clip-path="url(#clip0_0_18)">
<path d="M7.5 20H0.833333C0.612319 20 0.400358 19.9122 0.244078 19.7559C0.0877974 19.5997 0 19.3877 0 19.1667C0 18.9457 0.0877974 18.7337 0.244078 18.5774C0.400358 18.4211 0.612319 18.3333 0.833333 18.3333H7.5C7.72101 18.3333 7.93297 18.4211 8.08925 18.5774C8.24553 18.7337 8.33333 18.9457 8.33333 19.1667C8.33333 19.3877 8.24553 19.5997 8.08925 19.7559C7.93297 19.9122 7.72101 20 7.5 20Z" fill="white"/>
<path d="M5.83333 16.6667H0.833333C0.61232 16.6667 0.400358 16.5789 0.244078 16.4226C0.0877974 16.2663 0 16.0543 0 15.8333C0 15.6123 0.0877974 15.4004 0.244078 15.2441C0.400358 15.0878 0.61232 15 0.833333 15H5.83333C6.05435 15 6.26631 15.0878 6.42259 15.2441C6.57887 15.4004 6.66667 15.6123 6.66667 15.8333C6.66667 16.0543 6.57887 16.2663 6.42259 16.4226C6.26631 16.5789 6.05435 16.6667 5.83333 16.6667Z" fill="white"/>
<path d="M4.16667 13.3333H0.833333C0.61232 13.3333 0.400358 13.2455 0.244078 13.0892C0.0877974 12.933 0 12.721 0 12.5C0 12.279 0.0877974 12.067 0.244078 11.9107C0.400358 11.7545 0.61232 11.6667 0.833333 11.6667H4.16667C4.38768 11.6667 4.59964 11.7545 4.75592 11.9107C4.9122 12.067 5 12.279 5 12.5C5 12.721 4.9122 12.933 4.75592 13.0892C4.59964 13.2455 4.38768 13.3333 4.16667 13.3333Z" fill="white"/>
<path d="M10.833 19.9627C10.612 19.9726 10.3961 19.8942 10.2329 19.7449C10.0696 19.5955 9.97241 19.3875 9.96258 19.1665C9.95274 18.9455 10.0311 18.7296 10.1804 18.5664C10.3298 18.4031 10.5378 18.3059 10.7588 18.2961C12.3359 18.1518 13.8392 17.5611 15.0926 16.5932C16.346 15.6253 17.2978 14.3203 17.8363 12.8311C18.3748 11.3418 18.4778 9.72992 18.1332 8.18423C17.7886 6.63853 17.0108 5.22301 15.8907 4.10347C14.7707 2.98393 13.3548 2.20671 11.8089 1.86286C10.2631 1.519 8.65124 1.62275 7.16222 2.16193C5.6732 2.70112 4.36864 3.65343 3.40135 4.90732C2.43405 6.16121 1.84407 7.66477 1.70049 9.24188C1.6806 9.46201 1.57408 9.66523 1.40436 9.80682C1.23464 9.94841 1.01562 10.0168 0.795493 9.99688C0.575364 9.97699 0.372152 9.87047 0.230562 9.70075C0.0889717 9.53103 0.0206021 9.31201 0.0404934 9.09188C0.272901 6.52797 1.48516 4.15247 3.42493 2.45986C5.3647 0.767243 7.88253 -0.112062 10.4543 0.0049777C13.026 0.122017 15.4536 1.22638 17.2316 3.08819C19.0096 4.95 20.0011 7.4258 19.9997 10.0002C20.0124 12.4988 19.0842 14.9107 17.3996 16.7561C15.715 18.6014 13.3974 19.745 10.908 19.9594C10.883 19.9619 10.8572 19.9627 10.833 19.9627Z" fill="white"/>
<path d="M9.99935 5C9.77834 5 9.56637 5.0878 9.41009 5.24408C9.25381 5.40036 9.16602 5.61232 9.16602 5.83333V10C9.16606 10.221 9.25389 10.4329 9.41018 10.5892L11.9102 13.0892C12.0674 13.241 12.2779 13.325 12.4963 13.3231C12.7148 13.3212 12.9239 13.2335 13.0784 13.079C13.2329 12.9245 13.3205 12.7155 13.3224 12.497C13.3243 12.2785 13.2403 12.068 13.0885 11.9108L10.8327 9.655V5.83333C10.8327 5.61232 10.7449 5.40036 10.5886 5.24408C10.4323 5.0878 10.2204 5 9.99935 5Z" fill="white"/>
</g>
<defs>
<clipPath id="clip0_0_18">
<rect width="20" height="20" fill="white"/>
</clipPath>
</defs>
</svg>
