<svg width="40" height="40" viewBox="0 0 40 40" fill="none" xmlns="http://www.w3.org/2000/svg">
<path d="M10.7617 11.0882C10.9052 12.1238 11.217 13.2526 11.8943 14.2269C12.9463 15.737 14.8537 16.6521 16.588 16.1025C18.8674 15.4948 19.451 13.7003 19.8701 11.2888C21.2964 11.0811 21.3907 9.05151 20.5496 8.5474C21.2521 6.04055 20.0647 3.62521 17.9995 2.86575C17.0137 2.50356 15.8274 2.63233 14.8734 3.13644C14.9096 3.02631 14.9562 2.91989 15.0126 2.81863C15.0407 2.77177 15.0592 2.71976 15.067 2.66567C15.0748 2.61157 15.0717 2.55647 15.0579 2.50358C15.0441 2.45069 15.0199 2.40108 14.9868 2.35766C14.9536 2.31423 14.9121 2.27786 14.8646 2.25068C14.8172 2.22349 14.7649 2.20603 14.7106 2.19933C14.6564 2.19262 14.6014 2.19681 14.5488 2.21163C14.4962 2.22645 14.447 2.25162 14.4043 2.28566C14.3615 2.3197 14.326 2.36192 14.2997 2.40986C14.1901 2.60164 14.108 2.81041 14.0493 3.02521C14.0121 2.99726 13.9781 2.96493 13.9381 2.94082C13.8463 2.88298 13.7353 2.86397 13.6295 2.88796C13.5237 2.91196 13.4318 2.977 13.374 3.06877C13.3161 3.16054 13.2971 3.27153 13.3211 3.37732C13.3451 3.48311 13.4102 3.57504 13.5019 3.63288C12.788 3.61922 12.0956 3.87782 11.5655 4.35616C10.9112 4.9463 10.4964 5.83288 10.3962 6.85315C10.348 7.3463 10.3743 7.83069 10.4362 8.28055C9.86193 8.4011 9.48056 8.95562 9.55398 9.64329C9.62522 10.303 10.2225 10.8926 10.7617 11.0882ZM18.4877 13.1759C18.023 14.2652 17.1995 15.074 16.2849 15.3397C14.8548 15.7534 13.3348 14.8575 12.5688 13.7567C11.9058 12.8033 11.5589 11.5507 11.4822 9.8526C13.3277 9.96767 16.108 8.6674 17.3825 6.99616C17.6564 8.14356 18.1332 9.23178 19.0882 9.89589C19.0915 9.9211 19.103 9.94411 19.1112 9.96822C19.0367 11.0422 18.9195 12.166 18.4877 13.1759ZM11.2137 6.93315C11.2943 6.11781 11.6137 5.41918 12.1156 4.96658C12.651 4.48438 13.4323 4.31726 14.0186 4.56219C14.0976 4.59555 14.1851 4.60324 14.2687 4.58416C14.3522 4.56509 14.4277 4.52021 14.4844 4.45589C15.2362 3.60658 16.6554 3.24767 17.7156 3.63726C19.8088 4.40712 20.4975 7.08493 19.4389 9.13315C18.5129 8.40329 18.1825 7.07288 17.9759 5.71945C17.9619 5.62702 17.9168 5.54213 17.8481 5.47877C17.7794 5.41541 17.6911 5.37739 17.5978 5.37096C17.5042 5.363 17.4107 5.38807 17.3337 5.44181C17.2566 5.49556 17.2008 5.5746 17.1759 5.66521C16.6433 7.47671 13.2537 9.2252 11.4186 9.02466C11.223 8.19397 11.1551 7.5337 11.2137 6.93315ZM36.5573 29.5885C36.3217 29.0953 36.3764 29.0301 36.234 28.9814C35.7195 28.806 35.1896 28.589 34.7123 28.3973C34.7858 27.9748 34.8093 27.5918 34.7852 27.2427C35.3927 26.9214 35.9662 26.5396 36.497 26.103C36.6048 26.0139 36.6727 25.8856 36.686 25.7464C36.6992 25.6072 36.6567 25.4684 36.5677 25.3605C36.5447 25.3332 36.514 25.3167 36.4871 25.2948C36.0602 24.5576 35.5881 23.8476 35.0734 23.1688C34.9469 23.0027 34.7392 22.9227 34.4833 22.9858C33.919 23.1272 33.3688 23.3197 32.8395 23.5611L32.063 22.7814C32.2219 22.1222 32.2877 21.4471 32.251 20.7699C32.2956 20.6412 32.2886 20.5002 32.2314 20.3766C32.1741 20.2531 32.0711 20.1565 31.9441 20.1074C31.0711 19.7724 30.1592 19.5491 29.2301 19.4427C29.206 19.4395 29.1841 19.4482 29.1606 19.4482C29.0549 19.4354 28.9479 19.4551 28.8538 19.5046C28.7596 19.5542 28.6827 19.6312 28.6334 19.7255C28.3287 20.3126 28.0795 20.927 27.8893 21.5605C27.3374 21.4929 26.7792 21.4953 26.228 21.5677L25.2915 20.0411C25.2554 19.982 25.208 19.9306 25.152 19.8898C25.096 19.8491 25.0325 19.8198 24.9651 19.8037C24.8978 19.7875 24.8279 19.7849 24.7595 19.7958C24.6911 19.8067 24.6255 19.8311 24.5666 19.8674C24.5403 19.8838 24.5238 19.9085 24.5008 19.9277L23.2526 20.6712C21.4806 18.6279 17.6077 16.9507 13.9496 17.5611C9.34522 18.3556 5.31946 21.3036 3.22083 26.2488C3.13535 26.4493 3.17206 26.7973 3.4707 26.9721C3.75234 27.28 3.92165 27.7611 4.44275 27.8027C8.32385 28.1096 15.0663 28.4581 20.6236 28.4822L20.828 28.5589L21.0345 29.9644C20.9797 30.0115 20.514 30.5633 19.5447 31.0712C19.5041 31.0784 19.4636 31.08 19.4241 31.0975C19.2962 31.1539 19.1958 31.2586 19.1449 31.3889C19.0941 31.5191 19.0969 31.6642 19.1529 31.7923L20.1841 34.1441C20.2707 34.3414 20.4647 34.4597 20.668 34.4597C20.6943 34.4597 20.72 34.4477 20.7463 34.4433C20.7611 34.4444 20.7754 34.4488 20.7901 34.4488C20.9304 34.4488 21.0027 34.4027 21.0586 34.3841L22.6466 33.7079C23.3573 34.1989 23.0729 33.9912 23.8701 34.5392L23.4493 36.4197C23.4356 36.4422 23.4164 36.4592 23.406 36.4844C23.2975 36.7469 23.4208 37.0608 23.7419 37.1912C24.8345 37.6093 25.8477 37.7967 26.486 37.7967C26.556 37.7963 26.6252 37.7819 26.6895 37.7542C26.7538 37.7265 26.8119 37.6862 26.8603 37.6356L26.8614 37.6345C27.1008 37.5764 27.3633 37.4729 27.6011 37.3737C27.8647 37.2641 27.8795 37.0416 27.9507 36.7721C28.0614 36.3436 28.1852 35.9107 28.2997 35.4866C28.3573 35.4844 28.8148 35.4685 29.114 35.4652L30.1814 37.0488C30.2496 37.1524 30.353 37.2279 30.4726 37.2614C30.5921 37.2948 30.7197 37.2839 30.8318 37.2307C31.731 36.9666 32.5556 36.5403 33.1534 36.0279C33.3469 35.8625 33.4767 35.3523 33.5408 35.1222C33.5627 35.0433 33.5841 34.9677 33.554 34.8921C33.3693 34.4296 33.1321 33.8099 32.9408 33.3375C33.1764 33.0581 33.4241 32.7896 33.6866 32.5353C34.3556 32.6641 34.834 32.7079 35.3545 32.8274C35.4811 32.8538 35.6129 32.8333 35.7253 32.7695C35.8378 32.7058 35.9232 32.6032 35.9655 32.4811C36.4696 31.5205 36.7786 30.4449 36.8126 30.1195C36.829 30.0154 36.8134 29.9088 36.7678 29.8139C36.7222 29.719 36.6487 29.6407 36.5573 29.5885ZM19.3973 19.0515C18.3989 20.0312 16.4148 20.9868 15.2685 20.9868H15.2537C14.0877 20.9786 12.4417 20.0307 11.5249 19.091C14.3721 18.0334 16.5671 17.9107 19.3973 19.0515ZM19.3644 24.6323C19.0499 25.451 18.9162 26.0515 18.6159 26.8542C15.0718 26.9047 8.06083 26.771 4.10686 26.2723C5.60604 22.9211 8.13426 20.5584 10.7123 19.4214C11.7134 20.5847 13.7326 21.8088 15.2674 21.8088C16.72 21.8088 19.1096 20.629 20.1923 19.4071C21.154 19.8811 21.943 20.4438 22.5375 21.0964C22.4685 21.1458 22.469 21.1173 22.3534 21.2389C22.2214 21.366 22.1397 21.6115 22.2329 21.8263L22.9217 23.4159L22.0696 24.8329L20.0674 24.1151C19.7288 23.9945 19.3496 24.2449 19.3644 24.6323ZM35.1671 31.7151C34.5227 31.5989 34.1288 31.5622 33.6417 31.451C33.511 31.4326 33.3779 31.4542 33.2597 31.5129C32.891 31.7277 32.0581 32.731 31.7967 33.0712C31.7024 33.1347 31.6314 33.2272 31.5945 33.3347C31.5576 33.4422 31.5569 33.5589 31.5923 33.6669L32.1885 35.434C31.8049 35.7052 31.3343 35.9408 30.8263 36.1184L29.8373 34.6537C29.5726 34.2482 29.188 34.4548 27.5874 34.4466C27.5797 34.4433 27.5743 34.4367 27.5655 34.434C27.4325 34.3909 27.2879 34.4023 27.1633 34.4657C27.0387 34.5291 26.9443 34.6392 26.9008 34.7721C26.6852 35.4263 26.4484 36.0734 26.1907 36.7123C25.63 36.6594 25.0772 36.5418 24.5436 36.3616L24.9901 34.3655C25.0062 34.2958 25.0077 34.2236 24.9946 34.1534C24.9815 34.0831 24.954 34.0163 24.9139 33.9572C24.8738 33.8981 24.8219 33.8478 24.7614 33.8097C24.701 33.7715 24.6334 33.7462 24.5627 33.7353C23.9348 33.2981 23.6477 33.1271 23.1354 32.7649C23.0607 32.6706 22.9555 32.6053 22.8379 32.5803C22.7202 32.5553 22.5975 32.5721 22.491 32.6279C22.4362 32.6564 21.5759 33.0225 21.6307 32.9929C21.406 33.0915 21.1814 33.1858 20.9578 33.28L20.3288 31.8466C21.0992 31.3951 21.7085 30.8148 21.8159 30.6745C22.0252 30.4597 22.2219 30.2729 22.097 29.9397C21.8006 28.1479 21.8997 28.1014 21.7047 27.8712C21.5217 27.6027 21.451 27.7068 19.6849 27.0022C19.9304 26.3003 20.0088 25.9699 20.2433 25.2981L21.9545 25.9129C21.9732 25.9277 21.9863 25.9479 22.0071 25.9611C22.0666 25.9968 22.1324 26.0205 22.201 26.0307C22.2696 26.041 22.3395 26.0376 22.4068 26.0208C22.4741 26.004 22.5374 25.9741 22.5931 25.9329C22.6488 25.8916 22.6959 25.8397 22.7315 25.7803C23.891 23.7912 23.9573 23.8696 23.9617 23.5819C24.0164 23.4537 24.0225 23.3047 23.9627 23.1666L23.3803 21.8225L24.6751 21.0521L25.3929 22.2225C25.402 22.2934 25.4257 22.3617 25.4625 22.423C25.4993 22.4843 25.5483 22.5374 25.6065 22.5789C25.6648 22.6204 25.7309 22.6495 25.8009 22.6642C25.8709 22.679 25.9431 22.6791 26.0132 22.6647C26.7036 22.5266 27.4323 22.5244 28.1227 22.6581C28.2992 22.691 28.4625 22.6285 28.5808 22.5156C28.926 22.2811 28.6833 22.0915 29.423 20.5364C30.0269 20.6252 30.6214 20.7682 31.2 20.9644C31.2482 22.5096 30.7907 22.749 31.0652 23.1638C31.0882 23.251 31.1249 23.3342 31.1929 23.4027C32.263 24.4121 32.4241 24.8729 32.9189 24.6499C32.9556 24.6411 32.9929 24.6416 33.0285 24.6241C33.48 24.4049 33.9556 24.2351 34.44 24.0992C34.7907 24.5781 35.1195 25.0734 35.4247 25.5819C35.0297 25.8764 34.6115 26.1385 34.1743 26.3655C34.1469 26.3666 34.12 26.36 34.0926 26.3666C33.9561 26.3965 33.837 26.4793 33.7615 26.597C33.686 26.7146 33.6602 26.8574 33.6899 26.994C33.7891 27.4493 33.7408 28.0532 33.5469 28.7885C33.5268 28.8628 33.5234 28.9406 33.5369 29.0164C33.5505 29.0921 33.5806 29.164 33.6252 29.2267C33.6697 29.2895 33.7276 29.3416 33.7947 29.3793C33.8618 29.417 33.9364 29.4394 34.0132 29.4449C34.5885 29.6953 35.1458 29.9907 35.6833 30.3167C35.5551 30.7989 35.3819 31.2663 35.1677 31.7156L35.1671 31.7151Z" fill="#11BC50"/>
<path d="M28.8713 24.1732C28.8056 24.1578 28.7935 24.1622 28.1628 24.1085C26.6774 24.1134 25.6796 24.4088 24.6681 25.5003C24.1891 26.0066 23.8275 26.6537 23.6434 27.4416C22.8144 30.9595 26.1639 33.4701 29.1009 32.5573C30.907 31.9874 32.2078 30.1321 32.1272 28.2427C32.045 26.3074 30.6763 24.5962 28.8713 24.1732ZM28.7859 31.5507C27.8231 31.8493 26.7146 31.6208 25.885 31.0373C24.2812 29.377 24.8856 26.3666 27.5475 25.1775C28.1552 25.1293 28.3491 25.194 28.6664 25.2093C29.9804 25.5359 31.0127 26.8526 31.073 28.2877C31.1344 29.7167 30.1497 31.12 28.7859 31.5507Z" fill="#11BC50"/>
</svg>
