<svg width="40" height="40" viewBox="0 0 40 40" fill="none" xmlns="http://www.w3.org/2000/svg">
<path d="M29.4835 31.5605C29.6325 31.5605 29.7778 31.5249 29.9147 31.469L31.2391 32.7967C31.1497 32.8224 31.072 32.8781 31.0189 32.9545C30.9658 33.0308 30.9406 33.1232 30.9476 33.2159C30.9567 33.3244 31.0085 33.4249 31.0916 33.4953C31.1747 33.5657 31.2824 33.6002 31.3909 33.5912L32.2813 33.5178C32.3881 33.509 32.4872 33.4588 32.5576 33.3779C32.6279 33.2971 32.6638 33.1919 32.6578 33.0849L32.6084 32.2153C32.6054 32.1614 32.5917 32.1087 32.5682 32.0601C32.5447 32.0114 32.5119 31.9679 32.4716 31.932C32.4313 31.8961 32.3843 31.8684 32.3333 31.8507C32.2824 31.8329 32.2284 31.8254 32.1745 31.8285C32.0787 31.8348 31.9882 31.8748 31.9192 31.9416C31.8501 32.0083 31.807 32.0973 31.7975 32.1929L30.5032 30.8948C30.5691 30.7455 30.6024 30.5838 30.6008 30.4206C30.5992 30.2574 30.5627 30.0965 30.4939 29.9485L32.1213 28.2663C32.1405 28.3566 32.19 28.4377 32.2615 28.4961C32.3331 28.5545 32.4224 28.5867 32.5147 28.5874H32.5246C32.6336 28.5847 32.737 28.5388 32.8122 28.4599C32.8874 28.381 32.9282 28.2755 32.9257 28.1666L32.9032 27.2729C32.9007 27.1656 32.8562 27.0636 32.7794 26.9886C32.7026 26.9137 32.5996 26.8718 32.4923 26.8718H31.621C31.5121 26.8718 31.4075 26.9151 31.3305 26.9921C31.2534 27.0692 31.2101 27.1737 31.2101 27.2827C31.2109 27.3776 31.2449 27.4693 31.3063 27.5417C31.3676 27.6141 31.4525 27.6626 31.546 27.6789L29.9027 29.3775C29.6804 29.2943 29.437 29.286 29.2095 29.354C28.9729 29.4211 28.7643 29.5626 28.6144 29.7577C28.4646 29.9527 28.3816 30.1908 28.3778 30.4367C28.3695 31.0044 28.838 31.5605 29.4835 31.5605ZM10.9893 17.9545C11.1087 17.1403 10.9328 16.1589 11.0386 15.434C11.0544 15.327 11.0274 15.2182 10.9635 15.131C10.8996 15.0439 10.8039 14.9854 10.6972 14.9682C9.58161 14.7884 8.44456 14.7868 7.32844 14.9633C7.22625 14.9795 7.13393 15.0336 7.06985 15.1149C7.00578 15.1961 6.97466 15.2985 6.98269 15.4016C7.04187 16.1496 7.04022 17.2104 7.10159 17.9918C7.10585 18.047 7.12125 18.1009 7.14686 18.15C7.17247 18.1992 7.20776 18.2427 7.2506 18.2778C7.29345 18.313 7.34297 18.3391 7.39617 18.3547C7.44938 18.3702 7.50519 18.3748 7.56022 18.3682C8.44734 18.2619 9.65556 18.4192 10.6309 18.3036C10.7207 18.2929 10.8045 18.253 10.8693 18.1898C10.9341 18.1267 10.9763 18.044 10.9893 17.9545ZM10.2057 17.5151C9.49666 17.5562 8.69228 17.4795 7.89502 17.5162C7.86652 16.9353 7.85721 16.2926 7.82707 15.7244C8.61173 15.6307 9.40296 15.6312 10.1876 15.7266C10.158 16.3304 10.2336 16.9666 10.2057 17.5151ZM18.1043 15.2619C18.12 15.1552 18.093 15.0465 18.0292 14.9595C17.9655 14.8725 17.87 14.814 17.7635 14.7967C16.6478 14.6167 15.5105 14.6148 14.3942 14.7912C14.2921 14.8076 14.1999 14.8617 14.136 14.943C14.072 15.0242 14.0409 15.1265 14.049 15.2296C14.1082 15.9786 14.1065 17.04 14.1673 17.8203C14.1717 17.8755 14.1871 17.9293 14.2128 17.9784C14.2384 18.0275 14.2737 18.0709 14.3165 18.106C14.3594 18.1411 14.4089 18.1672 14.462 18.1827C14.5152 18.1982 14.571 18.2028 14.626 18.1962C15.5038 18.091 16.7246 18.2477 17.6972 18.1321C17.7868 18.1212 17.8704 18.0813 17.935 18.0183C17.9997 17.9553 18.0418 17.8729 18.055 17.7836C18.1789 16.9321 17.9958 16.0071 18.1043 15.2619ZM17.2715 17.3441C16.5553 17.3841 15.7197 17.3069 14.9613 17.3452C14.9328 16.7655 14.923 16.1211 14.8934 15.5523C15.6775 15.4592 16.4682 15.4592 17.2534 15.5545C17.2254 16.1321 17.2989 16.8093 17.2715 17.3441ZM14.2578 20.4948C13.1421 20.3153 12.0052 20.3135 10.889 20.4893C10.787 20.5058 10.6948 20.56 10.6309 20.6412C10.567 20.7224 10.5359 20.8246 10.5438 20.9277C10.6019 21.6542 10.6019 22.7425 10.6627 23.5184C10.667 23.5736 10.6825 23.6273 10.7081 23.6764C10.7337 23.7255 10.769 23.7689 10.8119 23.8041C10.8547 23.8392 10.9042 23.8653 10.9574 23.8808C11.0106 23.8963 11.0663 23.9008 11.1213 23.8942C12.0473 23.7847 13.1871 23.949 14.1915 23.8296C14.2813 23.819 14.3651 23.779 14.4299 23.7159C14.4946 23.6528 14.5368 23.5701 14.5498 23.4806C14.6693 22.6663 14.4934 21.6849 14.5991 20.96C14.6149 20.8531 14.5879 20.7442 14.524 20.6571C14.4601 20.5699 14.3645 20.5119 14.2578 20.4948ZM13.7668 23.0411C12.9986 23.0822 12.2726 23.0044 11.4561 23.0422C11.4287 22.4964 11.4178 21.8175 11.3876 21.2504C12.1739 21.1567 12.9641 21.1573 13.7482 21.2526C13.7186 21.8564 13.7947 22.4926 13.7668 23.0411ZM21.7882 20.3781C20.6724 20.1982 19.5351 20.1966 18.4188 20.3732C18.3168 20.3896 18.2247 20.4438 18.1608 20.525C18.0968 20.6062 18.0657 20.7085 18.0736 20.8115C18.1317 21.5386 18.1317 22.6263 18.1925 23.4022C18.1969 23.4574 18.2123 23.5112 18.238 23.5603C18.2636 23.6094 18.2989 23.6528 18.3417 23.6879C18.3846 23.723 18.4341 23.7491 18.4873 23.7646C18.5404 23.7801 18.5962 23.7847 18.6512 23.7781C19.5679 23.6696 20.7115 23.8312 21.7213 23.7134C21.8111 23.7028 21.8949 23.6628 21.9597 23.5997C22.0245 23.5366 22.0667 23.4539 22.0797 23.3644C22.1991 22.5501 22.0232 21.5688 22.129 20.8438C22.1448 20.737 22.1179 20.6282 22.0541 20.5411C21.9903 20.4539 21.8948 20.3954 21.7882 20.3781ZM21.2967 22.9249C20.5679 22.966 19.7443 22.8888 18.986 22.9266C18.958 22.3677 18.9476 21.7085 18.9175 21.1342C19.7021 21.0405 20.4934 21.0411 21.278 21.1364C21.2484 21.7403 21.3246 22.3764 21.2967 22.9249ZM25.4572 18.0055C25.5469 17.9947 25.6306 17.9547 25.6953 17.8916C25.76 17.8285 25.802 17.7459 25.815 17.6564C25.9345 16.8422 25.7586 15.8608 25.8649 15.1359C25.8807 15.029 25.8537 14.9201 25.7898 14.833C25.7259 14.7458 25.6302 14.6873 25.5235 14.6701C24.4079 14.4909 23.2709 14.4891 22.1547 14.6647C22.0526 14.6809 21.9602 14.735 21.8962 14.8162C21.8321 14.8975 21.801 14.9999 21.809 15.103C21.8682 15.8521 21.8665 16.9134 21.9273 17.6932C21.9316 17.7484 21.947 17.8022 21.9726 17.8514C21.9982 17.9006 22.0335 17.944 22.0764 17.9792C22.1192 18.0144 22.1687 18.0405 22.2219 18.056C22.2751 18.0716 22.3309 18.0762 22.386 18.0696C23.2846 17.9627 24.4808 18.1211 25.4572 18.0055ZM22.7213 17.2181C22.6928 16.64 22.683 15.9929 22.6534 15.4258C23.4373 15.3325 24.2296 15.3334 25.0134 15.4285C24.9843 16.0323 25.0599 16.6685 25.032 17.217C24.312 17.2564 23.472 17.1808 22.7213 17.2181Z" fill="#F79E1B"/>
<path d="M30.8022 22.8685C30.6203 18.668 30.6362 14.4581 30.8652 10.2597C30.9266 9.13918 30.9984 7.98576 30.6389 6.92274C30.4378 6.32767 29.983 5.62685 29.4005 5.22192C28.5194 4.28329 27.4619 4.68384 26.5184 4.59398C26.0756 2.56548 24.4274 1.75946 23.1896 2.27946C22.3589 2.62959 21.7567 3.59069 21.6816 4.61425L18.6477 4.6274C18.2822 2.43617 16.5627 1.55562 15.2805 2.09425C14.3907 2.46904 13.7682 3.54521 13.7699 4.64822L10.811 4.66083C10.4948 2.41425 8.74629 1.45973 7.42575 2.01535C6.50575 2.40329 5.86794 3.54083 5.91397 4.68165L5.01753 4.68548C3.7715 4.68548 2.76657 5.71014 2.78191 6.95672L2.9726 25.4236C2.9726 25.869 3.32657 26.2219 3.83616 26.28C7.35679 26.6743 10.8968 26.8706 14.4394 26.868C17.1792 26.868 20.0734 26.7573 23.3036 26.5408C22.6539 27.551 22.2712 28.7096 22.1912 29.908C22.0214 32.268 22.9912 34.4044 24.7057 35.8734C25.2186 36.5403 25.9249 37.0877 26.691 37.4515C30.9578 39.4767 36.1885 36.8482 37.092 31.9578C37.8822 27.6789 34.8652 23.309 30.8022 22.8685ZM23.509 3.03672C24.2236 2.73535 25.286 3.18192 25.6701 4.59726L22.5063 4.61096C22.5775 3.91398 22.9764 3.26083 23.509 3.03672ZM15.5994 2.85206C16.3704 2.52603 17.4997 3.07891 17.8159 4.63069L14.5885 4.64494C14.5879 3.86959 15.0115 3.09973 15.5994 2.85206ZM7.74465 2.77261C8.54027 2.43836 9.69808 3.02904 9.97917 4.66411L6.73314 4.67781C6.68821 3.86576 7.12876 3.03178 7.74465 2.77261ZM5.01917 5.50685L10.0296 5.48548C9.98962 6.3528 9.63737 7.17641 9.0378 7.80439C8.92444 7.75169 8.7987 7.7314 8.67451 7.74576C8.24986 7.80055 7.95835 8.24987 8.02246 8.7485C8.08712 9.24713 8.48328 9.60768 8.90794 9.55288C9.33205 9.49809 9.6241 9.04877 9.55945 8.55014C9.55616 8.52548 9.54849 8.50247 9.5441 8.47891C10.2855 7.75617 10.8027 6.68932 10.851 5.48165L17.8866 5.45206C17.8741 6.38392 17.4991 7.27427 16.8411 7.93425C16.7172 7.86697 16.5756 7.8396 16.4356 7.85589C16.011 7.91069 15.7194 8.35946 15.7836 8.85863C15.8482 9.35726 16.2444 9.71781 16.669 9.66302C17.0937 9.60822 17.3847 9.15891 17.3205 8.66028L17.3145 8.63288C18.1211 7.89151 18.6882 6.75233 18.7085 5.44877L25.7951 5.41809C25.8055 5.67178 25.7929 5.92767 25.7501 6.17809C25.6324 6.86795 25.3183 7.50925 24.8455 8.02521C24.7146 7.9473 24.5616 7.91493 24.4104 7.93315C23.9857 7.98795 23.6942 8.43726 23.7584 8.93589C23.823 9.43507 24.2192 9.79507 24.6438 9.74028C25.0636 9.68603 25.3523 9.24603 25.2959 8.75343C26.1293 7.94795 26.6614 6.73151 26.6192 5.4148L27.9551 5.40932C28.5918 5.40932 29.1151 5.92548 29.1238 6.56494L29.2005 11.5255C26.1731 11.5551 23.2263 11.531 20.3759 11.5079C14.6937 11.4614 9.3178 11.4197 3.65369 11.7792L3.60383 6.94685C3.60115 6.75908 3.63574 6.57264 3.70561 6.39833C3.77549 6.22403 3.87924 6.06531 4.01088 5.93138C4.14252 5.79745 4.29942 5.69097 4.47249 5.6181C4.64557 5.54522 4.83138 5.50741 5.01917 5.50685ZM3.92821 25.463C3.88052 25.4607 3.83433 25.4455 3.79451 25.4192L3.66191 12.6016C9.31397 12.2416 14.6866 12.2838 20.3699 12.3299C23.2241 12.3534 26.1764 12.3775 29.2126 12.3474L29.3742 22.8877C28.8081 22.9637 28.2567 23.1245 27.7386 23.3649C26.2992 23.811 24.9134 24.589 23.8263 25.6817C16.0482 26.228 10.2723 26.1627 3.92821 25.463ZM23.0137 30.8449H23.9605C24.0695 30.8449 24.1741 30.8016 24.2511 30.7246C24.3282 30.6475 24.3715 30.543 24.3715 30.434C24.3715 30.325 24.3282 30.2205 24.2511 30.1434C24.1741 30.0663 24.0695 30.023 23.9605 30.023H23.0093C23.1047 28.5321 23.6657 27.2219 24.64 26.1326L25.0553 26.5485C25.0932 26.5878 25.1386 26.6191 25.1887 26.6407C25.2388 26.6622 25.2927 26.6736 25.3473 26.6741C25.4019 26.6746 25.456 26.6642 25.5065 26.6436C25.557 26.6229 25.6029 26.5924 25.6415 26.5539C25.6801 26.5153 25.7107 26.4694 25.7313 26.4189C25.752 26.3684 25.7625 26.3143 25.762 26.2598C25.7616 26.2052 25.7503 26.1513 25.7287 26.1011C25.7072 26.051 25.6759 26.0056 25.6367 25.9677L25.229 25.5595C26.4257 24.6515 27.8334 24.0932 29.0838 23.8953V24.6712C29.0838 24.7802 29.1271 24.8848 29.2042 24.9618C29.2813 25.0389 29.3858 25.0822 29.4948 25.0822C29.6038 25.0822 29.7083 25.0389 29.7854 24.9618C29.8624 24.8848 29.9057 24.7802 29.9057 24.6712V23.9025C31.3808 24.0592 32.7266 24.7129 33.7638 25.6526L33.5742 25.8427C33.5339 25.8804 33.5015 25.9257 33.479 25.9762C33.4566 26.0266 33.4445 26.081 33.4435 26.1362C33.4425 26.1913 33.4527 26.2461 33.4734 26.2973C33.494 26.3485 33.5248 26.395 33.5638 26.434C33.6028 26.473 33.6493 26.5038 33.7005 26.5245C33.7517 26.5451 33.8065 26.5553 33.8617 26.5543C33.9168 26.5533 33.9712 26.5413 34.0217 26.5188C34.0721 26.4963 34.1174 26.4639 34.1551 26.4236L34.3403 26.2389C35.2762 27.3217 35.7737 28.6006 35.8679 30.023H35.2597C35.1507 30.023 35.0462 30.0663 34.9691 30.1434C34.8921 30.2205 34.8488 30.325 34.8488 30.434C34.8488 30.543 34.8921 30.6475 34.9691 30.7246C35.0462 30.8016 35.1507 30.8449 35.2597 30.8449H35.8762C35.8175 31.9786 35.4855 33.0959 34.8822 34.0356C34.6888 34.3332 34.4603 34.6126 34.2137 34.8784L33.909 34.5737C33.8714 34.5333 33.826 34.5009 33.7756 34.4785C33.7252 34.456 33.6708 34.4439 33.6156 34.443C33.5604 34.442 33.5056 34.4521 33.4545 34.4728C33.4033 34.4935 33.3568 34.5243 33.3178 34.5633C33.2788 34.6023 33.248 34.6488 33.2273 34.7C33.2067 34.7511 33.1965 34.8059 33.1975 34.8611C33.1985 34.9163 33.2105 34.9707 33.233 35.0211C33.2555 35.0715 33.2878 35.1169 33.3282 35.1545L33.6203 35.4477C32.5824 36.3411 31.2739 36.859 29.9057 36.9178V36.406C29.9057 36.297 29.8624 36.1925 29.7854 36.1154C29.7083 36.0384 29.6038 35.9951 29.4948 35.9951C29.3858 35.9951 29.2813 36.0384 29.2042 36.1154C29.1271 36.1925 29.0838 36.297 29.0838 36.406V36.9063C27.6296 36.7786 26.2526 36.1337 25.2011 35.2186L26.2071 34.4882C26.2508 34.4566 26.2879 34.4167 26.3162 34.3707C26.3445 34.3248 26.3634 34.2737 26.372 34.2204C26.3805 34.1672 26.3785 34.1127 26.366 34.0602C26.3535 34.0078 26.3308 33.9582 26.2992 33.9145C26.2675 33.8708 26.2276 33.8338 26.1817 33.8055C26.1357 33.7772 26.0847 33.7582 26.0314 33.7497C25.9781 33.7411 25.9237 33.7432 25.8712 33.7557C25.8187 33.7681 25.7692 33.7908 25.7255 33.8225L24.6126 34.629C24.532 34.5397 24.4493 34.4515 24.3748 34.3584C23.5529 33.3238 23.0948 32.1227 23.0137 30.8449Z" fill="#F79E1B"/>
</svg>
