<svg width="24" height="24" viewBox="0 0 24 24" fill="none" xmlns="http://www.w3.org/2000/svg">
<g clip-path="url(#clip0_66_69)">
<path d="M24 21.4219C24 21.8102 23.6852 22.125 23.2969 22.125H19.5469C19.1586 22.125 18.8438 21.8102 18.8438 21.4219C18.8438 21.0336 19.1586 20.7188 19.5469 20.7188H23.2969C23.6852 20.7188 24 21.0336 24 21.4219ZM15.4688 14.8594V22.3594C15.4688 23.264 14.7328 24 13.8281 24H1.64062C0.735984 24 0 23.264 0 22.3594V14.8594C0 13.9547 0.735984 13.2188 1.64062 13.2188H13.8281C14.7328 13.2188 15.4688 13.9547 15.4688 14.8594ZM2.55248 14.625L6.97289 18.5542C7.18269 18.7407 7.45365 18.8438 7.73438 18.8438C8.0151 18.8438 8.28606 18.7407 8.49586 18.5542L12.9163 14.625H2.55248ZM14.0625 15.4876L9.43017 19.6052C8.96294 20.0206 8.35953 20.25 7.73438 20.25C7.10923 20.25 6.50582 20.0206 6.03858 19.6053L1.40625 15.4876V22.3594C1.40625 22.4886 1.51139 22.5938 1.64062 22.5938H13.8281C13.9574 22.5938 14.0625 22.4886 14.0625 22.3594V15.4876ZM22.125 18.6094C22.125 18.2211 21.8102 17.9062 21.4219 17.9062H17.6719C17.2836 17.9062 16.9688 18.2211 16.9688 18.6094C16.9688 18.9977 17.2836 19.3125 17.6719 19.3125H21.4219C21.8102 19.3125 22.125 18.9977 22.125 18.6094ZM23.2969 15.0938H19.5469C19.1586 15.0938 18.8438 15.4086 18.8438 15.7969C18.8438 16.1852 19.1586 16.5 19.5469 16.5H23.2969C23.6852 16.5 24 16.1852 24 15.7969C24 15.4086 23.6852 15.0938 23.2969 15.0938ZM1.875 5.39062C1.875 5.77894 2.18981 6.09375 2.57812 6.09375H6.32812C6.71644 6.09375 7.03125 5.77894 7.03125 5.39062C7.03125 5.00231 6.71644 4.6875 6.32812 4.6875H2.57812C2.18981 4.6875 1.875 5.00231 1.875 5.39062ZM0.703125 3.28125H4.45312C4.84144 3.28125 5.15625 2.96644 5.15625 2.57812C5.15625 2.18981 4.84144 1.875 4.45312 1.875H0.703125C0.314812 1.875 0 2.18981 0 2.57812C0 2.96644 0.314812 3.28125 0.703125 3.28125ZM0.703125 8.90625H4.45312C4.84144 8.90625 5.15625 8.59144 5.15625 8.20312C5.15625 7.81481 4.84144 7.5 4.45312 7.5H0.703125C0.314812 7.5 0 7.81481 0 8.20312C0 8.59144 0.314812 8.90625 0.703125 8.90625ZM24 1.64062V9.14062C24 10.0453 23.264 10.7812 22.3594 10.7812H10.1719C9.26723 10.7812 8.53125 10.0453 8.53125 9.14062V1.64062C8.53125 0.735984 9.26723 0 10.1719 0H22.3594C23.264 0 24 0.735984 24 1.64062ZM11.0837 1.40625L15.5041 5.33545C15.7139 5.52197 15.9849 5.625 16.2656 5.625C16.5463 5.625 16.8173 5.52197 17.0271 5.33545L21.4475 1.40625H11.0837ZM22.5938 2.26884L17.9614 6.38648C17.4942 6.80183 16.8908 7.03126 16.2656 7.03127C15.6405 7.03128 15.0371 6.80186 14.5698 6.38653L9.9375 2.26884V9.14062C9.9375 9.26986 10.0426 9.375 10.1719 9.375H22.3594C22.4886 9.375 22.5938 9.26986 22.5938 9.14062V2.26884Z" fill="url(#paint0_linear_66_69)"/>
</g>
<defs>
<linearGradient id="paint0_linear_66_69" x1="12" y1="24" x2="12" y2="0" gradientUnits="userSpaceOnUse">
<stop stop-color="#40B7F0"/>
<stop offset="1" stop-color="#007AFF"/>
</linearGradient>
<clipPath id="clip0_66_69">
<rect width="24" height="24" fill="white"/>
</clipPath>
</defs>
</svg>
