<svg width="40" height="40" viewBox="0 0 40 40" fill="none" xmlns="http://www.w3.org/2000/svg">
<path d="M15.6971 14.4294C14.5989 14.7482 14.6471 16.4576 15.9965 17.0029C16.1265 17.9082 16.4036 18.8918 16.9965 19.7441C18.1483 21.4006 20.3736 22.2065 22.1348 20.9465C23.3312 20.2612 23.8742 18.5735 24.0653 17.2018C25.3524 17.0135 25.4953 15.2229 24.7418 14.68C25.3348 12.4506 24.2701 10.3359 22.4418 9.66412C21.2954 9.24117 19.8448 9.55647 18.9406 10.3906C17.2924 9.97882 15.3212 11.46 15.6971 14.4294ZM17.7206 19.24C17.1265 18.3871 16.8265 17.2518 16.7759 15.6953C16.9671 15.7823 17.2183 15.8329 17.5501 15.7965C18.0465 15.7435 18.3565 15.4194 19.4089 14.59C19.9377 15.8065 21.1365 15.7318 21.9442 14.7065C22.0995 14.5112 22.0518 14.5829 22.1077 14.5241C22.3771 15.1735 22.6724 15.83 23.3053 15.9759C23.2406 16.9053 23.1389 17.8747 22.7677 18.7447C22.3695 19.6776 21.6665 20.37 20.8883 20.5959C19.673 20.9488 18.3753 20.1812 17.7206 19.24ZM19.3942 11.1871C20.0212 10.4776 21.2512 10.1647 22.1371 10.4918C23.8924 11.1371 24.5018 13.37 23.6336 15.1347C23.5727 15.1357 23.5121 15.1268 23.4542 15.1082C23.4465 15.1041 23.2736 15.0094 22.9877 14.3488L22.9553 14.2688C22.8948 14.1123 22.8024 13.8747 22.5648 13.7271C22.253 13.5329 21.8312 13.5906 21.5142 13.87C21.3377 14.0247 21.2254 14.2112 21.1183 14.3159C20.8895 14.5394 20.6277 14.6547 20.4948 14.59C20.4042 14.5465 20.2695 14.3941 20.1877 14.1618C20.146 14.0452 20.0772 13.9403 19.9869 13.8556C19.8966 13.771 19.7874 13.709 19.6685 13.6749C19.5495 13.6407 19.4241 13.6354 19.3027 13.6593C19.1812 13.6832 19.0672 13.7357 18.9701 13.8124C17.6818 14.8276 17.6165 14.9024 17.4571 14.9194C17.3453 14.9312 17.1483 14.9365 17.0736 14.84C16.9112 14.6306 16.653 14.1606 16.5795 13.9412C16.5701 13.9124 16.5501 13.8906 16.5359 13.8653C16.4565 11.7806 17.8889 10.8806 18.8936 11.3012C18.9786 11.3363 19.0724 11.3442 19.162 11.3238C19.2517 11.3033 19.3328 11.2556 19.3942 11.1871Z" fill="#E67C73"/>
<path d="M11.4346 28.0824C11.405 28.1608 11.3933 28.245 11.4005 28.3285C11.4076 28.4121 11.4334 28.493 11.476 28.5653C11.5185 28.6376 11.5768 28.6994 11.6464 28.7463C11.716 28.7931 11.7952 28.8237 11.8782 28.8359C11.9111 28.8406 11.9488 28.8435 11.9823 28.8477L12.2352 29.3859C16.2176 29.7124 21.8764 29.7518 26.2446 29.7159C26.6458 29.7129 27.1905 29.4612 27.4811 29.12C27.7488 29.0282 27.9411 28.7347 27.8758 28.42C27.5493 26.8347 27.0141 25.4688 25.4658 23.9494C24.6882 23.1882 23.6588 22.5982 22.4058 22.1965C18.637 20.9847 13.5688 23.0365 11.4346 28.0824ZM22.2388 23.0747C21.9329 24.3218 19.7388 24.3965 18.7941 23.9194C18.4193 23.7312 18.1482 23.4159 18.0458 23.0812C19.6941 22.5735 20.8764 22.6206 22.2388 23.0747ZM26.9435 28.2829C25.0823 28.4541 16.6741 28.5088 12.4293 28.0159C13.4111 25.9218 15.0841 24.2159 17.2182 23.3712C17.6252 24.6229 18.8888 25.0859 20.2429 25.0653C21.487 25.0418 22.6882 24.5918 23.0688 23.4006C23.7699 23.72 24.3699 24.1124 24.8482 24.58C26.1405 25.8477 26.6364 26.9582 26.9435 28.2829Z" fill="#E67C73"/>
<path d="M20.1878 2.83118H20.1807C20.0649 2.83116 19.9537 2.87667 19.8712 2.95789C19.7887 3.0391 19.7414 3.14951 19.7395 3.26529L19.6989 5.89941C12.243 6.15647 6.08364 11.93 5.30834 19.2547L3.3554 19.2276C3.23914 19.2288 3.12778 19.2746 3.04443 19.3557C2.96108 19.4367 2.91213 19.5468 2.90775 19.6629C2.90698 19.7209 2.91762 19.7784 2.93908 19.8322C2.96053 19.886 2.99238 19.9351 3.0328 19.9766C3.07322 20.0181 3.12143 20.0513 3.17466 20.0742C3.22789 20.0971 3.28511 20.1092 3.34305 20.11L5.24658 20.1365C4.84717 28.4624 11.1678 35.1053 18.8572 35.7118V36.7282C18.8572 36.8452 18.9036 36.9575 18.9864 37.0402C19.0691 37.1229 19.1813 37.1694 19.2983 37.1694C19.4153 37.1694 19.5276 37.1229 19.6103 37.0402C19.693 36.9575 19.7395 36.8452 19.7395 36.7282V35.7553C28.7942 35.9276 35.4395 28.4247 35.0425 20.1318L36.6572 20.1106C36.9007 20.1071 37.0954 19.9071 37.0925 19.6635C37.0895 19.42 36.8748 19.2129 36.6454 19.2282L34.9719 19.25C34.6654 16.5253 33.5531 13.8759 31.7466 11.8488C29.2183 8.40176 24.9866 6.03 20.5819 5.90059L20.6219 3.27882C20.6236 3.16191 20.5789 3.0491 20.4975 2.96516C20.4161 2.88123 20.3047 2.83303 20.1878 2.83118ZM33.5395 19.2694L31.1307 19.3012C31.0137 19.302 30.9018 19.3492 30.8196 19.4325C30.7374 19.5158 30.6917 19.6283 30.6925 19.7453C30.6932 19.8623 30.7405 19.9742 30.8238 20.0564C30.907 20.1386 31.0196 20.1843 31.1366 20.1835C31.1954 20.1835 33.6366 20.1518 33.5778 20.1512C33.6913 28.2571 26.8866 34.1247 19.7395 33.92V32.0953C19.7395 31.9783 19.693 31.8661 19.6103 31.7833C19.5276 31.7006 19.4153 31.6541 19.2983 31.6541C19.1813 31.6541 19.0691 31.7006 18.9864 31.7833C18.9036 31.8661 18.8572 31.9783 18.8572 32.0953V33.8635C12.7954 33.24 6.35893 28.0341 6.48717 20.1535L8.7107 20.1841C8.8277 20.1849 8.94023 20.1392 9.02352 20.057C9.1068 19.9748 9.15403 19.8629 9.15481 19.7459C9.15559 19.6289 9.10986 19.5163 9.02768 19.4331C8.94549 19.3498 8.83359 19.3025 8.71658 19.3018L6.52834 19.2712C6.72952 16.7082 7.61481 14.1935 9.14775 12.1641C11.5872 8.93294 15.6478 6.93235 19.6854 6.78412L19.666 8.04471C19.6651 8.10264 19.6755 8.1602 19.6969 8.21408C19.7182 8.26797 19.7499 8.31712 19.7902 8.35875C19.8305 8.40037 19.8786 8.43365 19.9318 8.45667C19.985 8.4797 20.0422 8.49202 20.1001 8.49294H20.1072C20.2231 8.49295 20.3343 8.44736 20.4169 8.36602C20.4994 8.28468 20.5466 8.17412 20.5483 8.05824L20.5678 6.78882C26.7754 6.98412 32.9748 11.81 33.5395 19.2694Z" fill="#E67C73"/>
</svg>
