<svg width="19" height="18" viewBox="0 0 19 18" fill="none" xmlns="http://www.w3.org/2000/svg">
<path d="M2.02701 9.2415C1.97525 9.08594 1.97525 8.91781 2.02701 8.76225C3.06726 5.6325 6.02001 3.375 9.50001 3.375C12.9785 3.375 15.9298 5.63025 16.9723 8.7585C17.0248 8.91375 17.0248 9.08175 16.9723 9.23775C15.9328 12.3675 12.98 14.625 9.50001 14.625C6.02151 14.625 3.06951 12.3697 2.02701 9.2415Z" stroke="#737373" stroke-width="1.5" stroke-linecap="round" stroke-linejoin="round"/>
<path d="M11.75 9C11.75 9.59674 11.5129 10.169 11.091 10.591C10.669 11.0129 10.0967 11.25 9.5 11.25C8.90326 11.25 8.33097 11.0129 7.90901 10.591C7.48705 10.169 7.25 9.59674 7.25 9C7.25 8.40326 7.48705 7.83097 7.90901 7.40901C8.33097 6.98705 8.90326 6.75 9.5 6.75C10.0967 6.75 10.669 6.98705 11.091 7.40901C11.5129 7.83097 11.75 8.40326 11.75 9Z" stroke="#737373" stroke-width="1.5" stroke-linecap="round" stroke-linejoin="round"/>
</svg>
