<svg width="24" height="24" viewBox="0 0 24 24" fill="none" xmlns="http://www.w3.org/2000/svg">
<g clip-path="url(#clip0_0_3353)">
<path d="M10.5499 9.91L12.3199 10.93L12.8199 10.06L11.0599 9.04C11.3399 8.41 11.5099 7.72 11.5099 6.99C11.5099 6.26 11.3399 5.57 11.0599 4.94L12.8199 3.92L12.3199 3.05L10.5499 4.07C9.72993 2.94 8.45993 2.18 6.99993 2.03V0H5.99993V2.05C4.53993 2.2 3.26993 2.96 2.44993 4.09L0.679932 3.07L0.179932 3.94L1.93993 4.96C1.65993 5.59 1.48993 6.28 1.48993 7.01C1.48993 7.74 1.65993 8.43 1.93993 9.06L0.189932 10.06L0.689932 10.93L2.45993 9.91C3.27993 11.04 4.54993 11.8 6.00993 11.95V14H7.00993V11.95C8.46993 11.8 9.73993 11.04 10.5599 9.91H10.5499ZM6.49993 11C4.28993 11 2.49993 9.21 2.49993 7C2.49993 4.79 4.28993 3 6.49993 3C8.70993 3 10.4999 4.79 10.4999 7C10.4999 9.21 8.70993 11 6.49993 11ZM22.4999 17C22.4999 16.27 22.3299 15.58 22.0499 14.95L23.8099 13.93L23.3099 13.06L21.5399 14.08C20.7199 12.95 19.4499 12.19 17.9899 12.04V9.99H16.9899V12.04C15.5299 12.19 14.2599 12.95 13.4399 14.08L11.6699 13.06L11.1699 13.93L12.9299 14.95C12.6499 15.58 12.4799 16.27 12.4799 17C12.4799 17.73 12.6499 18.42 12.9299 19.05L11.1699 20.07L11.6699 20.94L13.4399 19.92C14.2599 21.05 15.5299 21.81 16.9899 21.96V24.01H17.9899V21.96C19.4499 21.81 20.7199 21.05 21.5399 19.92L23.3099 20.94L23.8099 20.07L22.0499 19.05C22.3299 18.42 22.4999 17.73 22.4999 17ZM17.4999 21C15.2899 21 13.4999 19.21 13.4999 17C13.4999 14.79 15.2899 13 17.4999 13C19.7099 13 21.4999 14.79 21.4999 17C21.4999 19.21 19.7099 21 17.4999 21Z" fill="#999999"/>
</g>
<defs>
<clipPath id="clip0_0_3353">
<rect width="24" height="24" fill="white"/>
</clipPath>
</defs>
</svg>
