<svg width="40" height="40" viewBox="0 0 40 40" fill="none" xmlns="http://www.w3.org/2000/svg">
<path d="M28.4103 6.90824C29.3221 6.76529 29.8621 5.97294 29.7474 5.16235C29.6256 4.29882 28.7991 3.65529 27.9003 3.75235C26.518 3.88529 25.9403 5.52118 26.978 6.47471C25.9074 6.47765 24.3627 7.25588 23.8121 8.48235C23.7857 8.54109 23.7726 8.60489 23.7735 8.66927C23.7744 8.73364 23.7894 8.79704 23.8174 8.855C23.8455 8.91296 23.8858 8.96408 23.9357 9.00478C23.9856 9.04548 24.0438 9.07477 24.1062 9.09059L29.3209 10.4182C29.433 10.4469 29.5519 10.4306 29.6521 10.3726C29.7523 10.3146 29.8258 10.2197 29.8568 10.1082C29.8956 9.96706 29.8744 9.83176 29.855 9.70647C29.7491 8.55353 29.518 7.60882 28.4103 6.90824ZM28.0656 4.62647C28.7121 4.62647 29.1068 5.31353 28.7415 5.77765C28.3362 6.28941 27.4268 6.04294 27.3356 5.39471C27.2803 4.99882 27.5921 4.62647 28.0656 4.62647ZM24.9027 8.38294C26.2762 6.72412 28.6486 7.05941 28.938 9.40941L24.9027 8.38294ZM12.058 18.9876C11.4044 19.1082 10.948 19.7341 11.0344 20.5318C11.1156 21.2865 11.8038 21.9629 12.4221 22.18L12.4268 22.1806C12.5915 23.3782 12.9486 24.6859 13.7327 25.8124C15.2697 28.0224 18.0233 28.8788 20.4603 27.4394C22.1309 26.4524 22.6215 24.1488 22.9238 22.4024C24.5415 22.1541 24.6327 19.8494 23.665 19.2806C24.4856 16.3941 23.118 13.61 20.745 12.7382C19.2586 12.1912 17.3686 12.6147 16.2186 13.7194C14.0274 13.1076 11.5209 15.1453 12.058 18.9876ZM14.4562 25.3076C13.6538 24.1547 13.2503 22.6282 13.1856 20.5341C13.5309 19.8953 13.9286 19.1141 14.2186 18.3024C16.5303 19.2947 18.8986 19.1224 21.2738 17.7882C21.2874 17.8471 22.0462 21.0459 22.0615 21.1053C21.9744 22.2894 21.8274 23.5165 21.3527 24.6294C20.8115 25.8976 19.8521 26.8394 18.7862 27.1488C17.1191 27.6341 15.3474 26.59 14.4562 25.3076ZM16.1715 14.6353C16.2563 14.6709 16.3502 14.6791 16.4398 14.6586C16.5295 14.6381 16.6105 14.5901 16.6715 14.5212C17.548 13.53 19.2027 13.1112 20.4409 13.5665C22.5497 14.3412 23.6744 17.0059 22.6327 19.57C22.3762 18.5276 22.1797 17.8659 22.0056 17.0071C21.9913 16.9369 21.9602 16.8713 21.9149 16.8159C21.8696 16.7604 21.8115 16.7169 21.7457 16.6889C21.6798 16.6609 21.6081 16.6494 21.5367 16.6553C21.4654 16.6613 21.3966 16.6845 21.3362 16.7229C18.9033 18.2676 16.4862 18.4618 14.1497 17.2994C14.092 17.2707 14.0288 17.255 13.9644 17.2532C13.9 17.2515 13.8359 17.2639 13.7768 17.2894C13.4386 17.4371 13.6515 17.5506 12.9621 19.0265C12.8662 18.4235 12.8368 17.8941 12.8844 17.4024C13.1086 15.1259 14.8609 14.09 16.1715 14.6353Z" fill="#EB001B"/>
<path d="M27.8188 37.3541C25.4893 26.0624 11.0064 26.0924 6.41875 36.9306C6.38697 37.0127 6.37401 37.1008 6.38083 37.1886C6.38765 37.2764 6.41408 37.3615 6.45817 37.4376C6.56346 37.6241 6.72875 37.7141 6.93934 37.7412L7.34287 38.5988C12.5911 39.0294 20.0493 39.0812 25.8058 39.0341C26.444 39.0288 27.3588 38.5488 27.6205 37.9565C27.6388 37.9388 27.6635 37.9306 27.6793 37.9106C27.8088 37.7547 27.8593 37.5518 27.8188 37.3541ZM18.4676 29.7035C18.4217 30.0371 18.2235 30.2329 17.9088 30.3318C17.3746 30.5 17.0011 30.2553 16.874 29.7418C17.4023 29.6812 17.9329 29.6594 18.4676 29.7035ZM7.39052 36.91C9.02758 33.2965 11.9605 30.7806 15.9993 29.8776C16.117 30.4453 16.4729 30.9659 17.057 31.1735C16.4823 32.6029 16.0711 33.71 15.6023 34.8471C15.5754 34.9121 15.5644 34.9826 15.5704 35.0527C15.5763 35.1228 15.599 35.1904 15.6364 35.25C16.0605 35.9265 17.0317 36.9982 17.4729 37.4265C13.8146 37.3853 10.0705 37.2341 7.39052 36.91ZM16.5076 34.9653C16.8817 34.0471 17.3005 32.9506 17.6564 32.0465C17.9923 32.9559 18.3423 33.9682 18.8052 34.9976C18.5205 35.4329 18.117 35.9976 17.7729 36.4729C17.3705 36.0447 16.8299 35.4241 16.5076 34.9653ZM18.1693 37.4335C18.3388 37.2259 19.4064 35.7041 19.6764 35.2747C19.7088 35.2233 19.7301 35.1658 19.7393 35.1058C19.7484 35.0458 19.745 34.9845 19.7293 34.9259C18.6617 32.2435 18.3188 31.3847 18.2229 31.1453C18.8558 30.9141 19.2493 30.4588 19.3358 29.8241C22.9452 30.5006 25.9676 33.0524 26.8993 37.2753C24.0388 37.4282 20.7829 37.4535 18.1699 37.4341L18.1693 37.4335ZM37.347 4.73882C23.8423 1.28352 24.3311 1.30705 23.7423 1.47294C22.8493 1.72411 22.6082 2.79764 22.5176 3.20235C22.1008 5.09411 21.7082 6.99113 21.3399 8.89294C21.2729 9.24117 21.2205 9.6247 21.3064 9.98705C21.2917 10.7841 21.7393 11.13 22.474 11.44C23.6558 11.9376 24.9082 12.2235 26.1782 12.4318C26.4964 12.4841 27.0393 12.6488 27.4158 12.67C27.4476 13.4323 27.5952 14.2594 27.6411 14.9582C27.8835 15.1753 28.0482 15.3794 28.2488 15.59C28.2723 15.6854 28.3272 15.7701 28.4047 15.8306C28.4821 15.891 28.5776 15.9238 28.6758 15.9235C28.8935 15.9235 28.7446 15.98 31.3523 13.8982C31.7052 13.8747 32.564 14.3029 34.4452 14.4982C35.0058 14.5559 35.5599 14.55 35.8511 14.0641C36.0935 13.96 36.2123 13.7429 36.2688 13.6376C36.604 13.0153 38.4252 7.86235 38.6358 7.19176C38.8164 6.61647 38.9488 5.95588 38.5605 5.41411C38.2411 4.96705 37.7029 4.82999 37.347 4.73882ZM37.794 6.92705C37.5352 7.75176 35.697 12.8388 35.4917 13.2188C35.4895 13.2237 35.4869 13.2284 35.4841 13.2329C31.7664 12.7506 31.874 12.3523 31.3129 12.8006C30.2723 13.6312 29.6846 14.1006 29.0846 14.5841C28.9982 13.6271 28.7452 12.6971 28.3082 11.7147C28.0917 11.2265 27.717 11.7029 22.864 10.2629C22.1464 10.05 22.0429 9.91 22.2064 9.05882C22.573 7.16589 22.9636 5.2777 23.3782 3.3947C23.6558 2.15999 24.0205 2.24176 24.6035 2.38941C38.2199 5.8847 37.6411 5.64705 37.844 5.92764C38.0052 6.15411 37.9088 6.55941 37.794 6.92764V6.92705ZM10.157 13.11C10.244 13.1103 10.329 13.0845 10.4011 13.0359C10.4733 12.9874 10.5292 12.9183 10.5617 12.8376C10.7146 12.6606 10.8435 12.4518 11.0305 12.3212C11.1052 11.6182 11.1888 11.0253 11.374 10.4088C11.494 10.3829 11.094 10.5088 13.8576 9.4747C14.8846 9.09 15.9293 8.51705 15.6699 7.44705C15.6629 7.17647 15.5899 6.92647 15.5399 6.75882C15.0839 5.27029 14.6089 3.78762 14.1152 2.31117C14.0035 1.98235 13.707 1.10941 12.9217 0.976465C12.4123 0.890582 12.8752 0.804112 2.29052 4.74294C1.11758 5.17647 1.0117 5.85647 1.36875 6.83588C1.5064 7.21235 3.69993 11.7235 3.97228 12.0241V12.0253C4.16346 12.4 4.5864 12.6523 4.9917 12.6794C6.02875 12.7494 6.93581 12.0029 7.94758 11.7735C10.0605 13.1218 9.96523 13.11 10.157 13.11ZM2.22934 6.57647C2.12111 6.32764 2.00934 6.02117 2.10111 5.85999C2.21758 5.6547 1.95287 5.81882 12.3288 1.94941C12.7582 1.79176 12.9729 1.69058 13.2805 2.59529C13.6946 3.81882 14.3593 5.90647 14.6958 7.01529C14.884 7.63705 14.8264 7.71764 14.3223 7.92705C10.4823 9.52705 10.2058 9.12294 10.0488 9.60235C9.79817 10.3759 9.67228 11.1 9.66699 11.8265C9.26287 11.5665 8.88052 11.3229 8.46934 11.0606C6.94993 10.2371 8.36581 10.4347 4.56758 11.3518C4.38523 11.0729 2.49052 7.17705 2.22934 6.57647Z" fill="#EB001B"/>
<path d="M35.461 7.34823C34.3163 6.8547 33.1081 6.53647 31.8692 6.40294C31.7557 6.39578 31.6437 6.43273 31.5567 6.50609C31.4697 6.57945 31.4143 6.68356 31.4022 6.79672C31.3901 6.90988 31.4221 7.02336 31.4915 7.1135C31.561 7.20365 31.6626 7.2635 31.7751 7.28059C32.9257 7.40412 34.0481 7.7 35.1116 8.15823C35.2185 8.20165 35.3381 8.20146 35.4449 8.15772C35.5516 8.11398 35.637 8.03016 35.6827 7.92423C35.7284 7.8183 35.7308 7.69868 35.6893 7.59101C35.6479 7.48334 35.5659 7.39619 35.461 7.34823ZM33.8045 9.22117L31.4486 8.55235C31.3929 8.53651 31.3346 8.53181 31.2771 8.53851C31.2195 8.54521 31.1638 8.56318 31.1132 8.59139C31.0626 8.6196 31.0181 8.65751 30.9821 8.70294C30.9461 8.74837 30.9195 8.80044 30.9036 8.85617C30.8878 8.91191 30.8831 8.97022 30.8898 9.02777C30.8965 9.08532 30.9145 9.14099 30.9427 9.1916C30.9709 9.24221 31.0088 9.28676 31.0542 9.32272C31.0997 9.35868 31.1517 9.38534 31.2075 9.40118C33.6639 10.0924 33.5704 10.0865 33.6839 10.0865C34.1939 10.0865 34.2951 9.36059 33.8045 9.22117ZM5.40158 7.60235C5.30982 6.83353 4.2957 6.71823 3.93923 7.32C3.69276 7.73176 3.87747 8.29941 4.31923 8.49765C4.98982 8.79353 5.76276 8.0647 5.40158 7.60235ZM8.82276 6.34882C8.971 5.78764 8.51511 5.26235 7.92335 5.37235C7.19159 5.50529 7.00394 6.43235 7.57453 6.88647C8.1557 7.35 9.14511 6.92764 8.82276 6.34882ZM10.8057 5.55764C10.8922 5.62588 10.9881 5.65294 11.0939 5.65294C11.8416 5.65294 12.1263 4.61235 11.4016 4.27647C10.6381 3.92117 10.0545 4.89412 10.5781 5.43353C10.6428 5.49941 10.7216 5.54117 10.8057 5.55764Z" fill="#EB001B"/>
</svg>
