<svg width="24" height="24" viewBox="0 0 24 24" fill="none" xmlns="http://www.w3.org/2000/svg">

<symbol id="gift-card"  viewBox="0 0 24 24">
    <path d="M2 10C2 7.17157 2 5.75736 2.87868 4.87868C3.75736 4 5.17157 4 8 4H16C18.8284 4 20.2426 4 21.1213 4.87868C22 5.75736 22 7.17157 22 10V14C22 16.8284 22 18.2426 21.1213 19.1213C20.2426 20 18.8284 20 16 20H8C5.17157 20 3.75736 20 2.87868 19.1213C2 18.2426 2 16.8284 2 14V10Z"  stroke-width="1.5" stroke-linecap="round" stroke-linejoin="round"/>
    <path d="M6 9.90429C6 5.35988 12 9.99015 12 13H8.5C6.7632 13 6 11.4699 6 9.90429Z"  stroke-width="1.5" stroke-linecap="round" stroke-linejoin="round"/>
    <path d="M18 9.90429C18 5.35988 12 9.99015 12 13H15.5C17.2368 13 18 11.4699 18 9.90429Z"  stroke-width="1.5" stroke-linecap="round" stroke-linejoin="round"/>
    <path d="M12 4V20"  stroke-width="1.5" stroke-linecap="round" stroke-linejoin="round"/>
    <path d="M2 13H22"  stroke-width="1.5" stroke-linecap="round" stroke-linejoin="round"/>
    <path d="M15 16L12 13L9 16"  stroke-width="1.5" stroke-linecap="round" stroke-linejoin="round"/>
</symbol>

<symbol id="products"  viewBox="0 0 24 24">
    <path d="M10 21C10.3094 21 10.5912 20.8407 11.1547 20.5222L17.8453 16.7402C18.4088 16.4216 18.6906 16.2623 18.8453 16C19 15.7377 19 15.4191 19 14.782V7.21799C19 6.58089 19 6.26234 18.8453 6C18.6906 5.73766 18.4088 5.57838 17.8453 5.25983L11.1547 1.47782C10.5912 1.15927 10.3094 1 10 1C9.6906 1 9.4088 1.15927 8.8453 1.47782L2.1547 5.25983C1.59117 5.57838 1.3094 5.73766 1.1547 6C1 6.26234 1 6.58089 1 7.21799V14.782C1 15.4191 1 15.7377 1.1547 16C1.3094 16.2623 1.59117 16.4216 2.1547 16.7402L8.8453 20.5222C9.4088 20.8407 9.6906 21 10 21ZM10 21V10.6154M10 10.6154L18.5 6M10 10.6154L1.5 6"  stroke-width="1.5" stroke-linecap="round" stroke-linejoin="round"/>
</symbol>
<symbol id="inventory"  viewBox="0 0 24 24">
<path d="M2.25 13.5H6.11C6.5278 13.5001 6.93731 13.6165 7.29267 13.8363C7.64803 14.056 7.9352 14.3703 8.122 14.744L8.378 15.256C8.56488 15.6299 8.8522 15.9443 9.20775 16.164C9.5633 16.3837 9.97303 16.5001 10.391 16.5H13.609C14.027 16.5001 14.4367 16.3837 14.7922 16.164C15.1478 15.9443 15.4351 15.6299 15.622 15.256L15.878 14.744C16.0649 14.3701 16.3522 14.0557 16.7078 13.836C17.0633 13.6163 17.473 13.4999 17.891 13.5H21.75M2.25 13.838V18C2.25 18.5967 2.48705 19.169 2.90901 19.591C3.33097 20.0129 3.90326 20.25 4.5 20.25H19.5C20.0967 20.25 20.669 20.0129 21.091 19.591C21.5129 19.169 21.75 18.5967 21.75 18V13.838C21.75 13.614 21.716 13.391 21.65 13.177L19.24 5.338C19.0985 4.87824 18.8133 4.47595 18.4264 4.19015C18.0394 3.90435 17.5711 3.75009 17.09 3.75H6.911C6.42995 3.75009 5.96159 3.90435 5.57464 4.19015C5.1877 4.47595 4.90254 4.87824 4.761 5.338L2.35 13.177C2.28394 13.3911 2.25023 13.6139 2.25 13.838Z" stroke-width="1.5" stroke-linecap="round" stroke-linejoin="round"/>
</symbol>
<symbol id="reports"  viewBox="0 0 24 24">
<path d="M16.5 13.25V10.625C16.5 9.72989 16.1444 8.87145 15.5115 8.23851C14.8786 7.60558 14.0201 7.25 13.125 7.25H11.625C11.3266 7.25 11.0405 7.13147 10.8295 6.9205C10.6185 6.70952 10.5 6.42337 10.5 6.125V4.625C10.5 3.72989 10.1444 2.87145 9.51149 2.23851C8.87855 1.60558 8.02011 1.25 7.125 1.25H5.25M5.25 14H12.75M5.25 17H9M7.5 1.25H2.625C2.004 1.25 1.5 1.754 1.5 2.375V19.625C1.5 20.246 2.004 20.75 2.625 20.75H15.375C15.996 20.75 16.5 20.246 16.5 19.625V10.25C16.5 7.86305 15.5518 5.57387 13.864 3.88604C12.1761 2.19821 9.88695 1.25 7.5 1.25Z"  stroke-width="1.5" stroke-linecap="round" stroke-linejoin="round"/>
</symbol>
<symbol id="customers"  viewBox="0 0 24 24">
<path d="M14 17.128C14.853 17.3757 15.7368 17.5009 16.625 17.5C18.0534 17.5021 19.4632 17.1764 20.746 16.548C20.7839 15.6517 20.5286 14.7675 20.0188 14.0293C19.5089 13.2912 18.7724 12.7394 17.9207 12.4575C17.069 12.1757 16.1487 12.1791 15.2992 12.4674C14.4496 12.7557 13.7172 13.313 13.213 14.055M14 17.128V17.125C14 16.012 13.714 14.965 13.213 14.055M14 17.128V17.234C12.0755 18.3931 9.8706 19.0038 7.62399 19C5.29299 19 3.11199 18.355 1.24999 17.234L1.24899 17.125C1.24823 15.7095 1.71861 14.3339 2.58598 13.2153C3.45335 12.0966 4.66837 11.2984 6.03948 10.9466C7.4106 10.5948 8.85982 10.7093 10.1587 11.2721C11.4575 11.8349 12.5321 12.814 13.213 14.055M11 4.375C11 5.27011 10.6444 6.12855 10.0115 6.76149C9.37854 7.39442 8.5201 7.75 7.62499 7.75C6.72989 7.75 5.87144 7.39442 5.23851 6.76149C4.60557 6.12855 4.24999 5.27011 4.24999 4.375C4.24999 3.47989 4.60557 2.62145 5.23851 1.98851C5.87144 1.35558 6.72989 1 7.62499 1C8.5201 1 9.37854 1.35558 10.0115 1.98851C10.6444 2.62145 11 3.47989 11 4.375ZM19.25 6.625C19.25 7.32119 18.9734 7.98887 18.4811 8.48116C17.9889 8.97344 17.3212 9.25 16.625 9.25C15.9288 9.25 15.2611 8.97344 14.7688 8.48116C14.2766 7.98887 14 7.32119 14 6.625C14 5.92881 14.2766 5.26113 14.7688 4.76884C15.2611 4.27656 15.9288 4 16.625 4C17.3212 4 17.9889 4.27656 18.4811 4.76884C18.9734 5.26113 19.25 5.92881 19.25 6.625Z"  stroke-width="1.5" stroke-linecap="round" stroke-linejoin="round"/>
</symbol>
<symbol id="expenses"  viewBox="0 0 24 24">
<path d="M1.25 15.75C6.58561 15.7457 11.898 16.4522 17.047 17.851C17.774 18.049 18.5 17.509 18.5 16.755V15.75M2.75 1.5V2.25C2.75 2.44891 2.67098 2.63968 2.53033 2.78033C2.38968 2.92098 2.19891 3 2 3H1.25M1.25 3V2.625C1.25 2.004 1.754 1.5 2.375 1.5H19.25M1.25 3V12M19.25 1.5V2.25C19.25 2.664 19.586 3 20 3H20.75M19.25 1.5H19.625C20.246 1.5 20.75 2.004 20.75 2.625V12.375C20.75 12.996 20.246 13.5 19.625 13.5H19.25M1.25 12V12.375C1.25 12.6734 1.36853 12.9595 1.5795 13.1705C1.79048 13.3815 2.07663 13.5 2.375 13.5H2.75M1.25 12H2C2.19891 12 2.38968 12.079 2.53033 12.2197C2.67098 12.3603 2.75 12.5511 2.75 12.75V13.5M19.25 13.5V12.75C19.25 12.5511 19.329 12.3603 19.4697 12.2197C19.6103 12.079 19.8011 12 20 12H20.75M19.25 13.5H2.75M14 7.5C14 8.29565 13.6839 9.05871 13.1213 9.62132C12.5587 10.1839 11.7956 10.5 11 10.5C10.2044 10.5 9.44129 10.1839 8.87868 9.62132C8.31607 9.05871 8 8.29565 8 7.5C8 6.70435 8.31607 5.94129 8.87868 5.37868C9.44129 4.81607 10.2044 4.5 11 4.5C11.7956 4.5 12.5587 4.81607 13.1213 5.37868C13.6839 5.94129 14 6.70435 14 7.5ZM17 7.5H17.008V7.508H17V7.5ZM5 7.5H5.008V7.508H5V7.5Z"  stroke-width="1.5" stroke-linecap="round" stroke-linejoin="round"/>
</symbol>
<symbol id="dashboard"  viewBox="0 0 24 24">
<path d="M20.5 15.8278C17.9985 21.756 9.86407 23.4835 5.20143 18.8641C0.629484 14.3347 2.04493 6.12883 8.05653 3.5"  stroke-width="1.5" stroke-linecap="round"/>
<path d="M17.6831 12.5C19.5708 12.5 20.5146 12.5 21.1241 11.655C21.1469 11.6234 21.1848 11.5667 21.2052 11.5336C21.7527 10.6471 21.4705 9.966 20.9063 8.60378C20.3946 7.36853 19.6447 6.24615 18.6993 5.30073C17.7538 4.35531 16.6315 3.60536 15.3962 3.0937C14.034 2.52946 13.3529 2.24733 12.4664 2.79477C12.4333 2.81523 12.3766 2.85309 12.345 2.87587C11.5 3.4854 11.5 4.42922 11.5 6.31686V8.42748C11.5 10.3473 11.5 11.3072 12.0964 11.9036C12.6928 12.5 13.6527 12.5 15.5725 12.5H17.6831Z"  stroke-width="1.5"/>
</symbol>

<symbol id="lang"  viewBox="0 0 24 24">
    <path d="M8.5 19L13.75 7.75L19 19M10 16H17.5M1 3.621C2.9904 3.37332 4.99425 3.24941 7 3.25M7 3.25C8.12 3.25 9.233 3.288 10.334 3.364M7 3.25V1M10.334 3.364C9.176 8.658 5.69 13.08 1 15.502M10.334 3.364C11.23 3.425 12.119 3.511 13 3.621M8.411 12.116C6.77097 10.4486 5.47113 8.47799 4.584 6.314" stroke="#A3A3A3" stroke-width="1.5" stroke-linecap="round" stroke-linejoin="round"/>
</symbol>
<symbol id="bill"  viewBox="0 0 24 24">
    <path d="M12.857 15.082C14.7202 14.8614 16.5509 14.4217 18.311 13.772C16.8204 12.1208 15.9967 9.9745 16 7.75V7.05V7C16 5.4087 15.3679 3.88258 14.2427 2.75736C13.1174 1.63214 11.5913 1 10 1C8.40872 1 6.8826 1.63214 5.75738 2.75736C4.63216 3.88258 4.00002 5.4087 4.00002 7V7.75C4.00304 9.97463 3.17901 12.121 1.68802 13.772C3.42102 14.412 5.24802 14.857 7.14302 15.082M12.857 15.082C10.959 15.3071 9.04104 15.3071 7.14302 15.082M12.857 15.082C13.0011 15.5319 13.037 16.0094 12.9616 16.4757C12.8863 16.942 12.7019 17.384 12.4234 17.7656C12.145 18.1472 11.7803 18.4576 11.3592 18.6716C10.9381 18.8856 10.4724 18.9972 10 18.9972C9.52765 18.9972 9.06195 18.8856 8.64083 18.6716C8.21972 18.4576 7.85509 18.1472 7.57664 17.7656C7.29819 17.384 7.11379 16.942 7.03844 16.4757C6.96309 16.0094 6.99892 15.5319 7.14302 15.082M1.12402 5.5C1.40599 3.82497 2.15782 2.26444 3.29202 1M16.708 1C17.8422 2.26444 18.5941 3.82497 18.876 5.5" stroke="#A3A3A3" stroke-width="1.5" stroke-linecap="round" stroke-linejoin="round"/>
</symbol>
<symbol id="bill2"  viewBox="0 0 24 24">
    <path d="M12.857 15.082C14.7202 14.8614 16.5509 14.4217 18.311 13.772C16.8204 12.1208 15.9967 9.9745 16 7.75V7.05V7C16 5.4087 15.3679 3.88258 14.2427 2.75736C13.1174 1.63214 11.5913 1 10 1C8.40872 1 6.8826 1.63214 5.75738 2.75736C4.63216 3.88258 4.00002 5.4087 4.00002 7V7.75C4.00304 9.97463 3.17901 12.121 1.68802 13.772C3.42102 14.412 5.24802 14.857 7.14302 15.082M12.857 15.082C10.959 15.3071 9.04104 15.3071 7.14302 15.082M12.857 15.082C13.0011 15.5319 13.037 16.0094 12.9616 16.4757C12.8863 16.942 12.7019 17.384 12.4234 17.7656C12.145 18.1472 11.7803 18.4576 11.3592 18.6716C10.9381 18.8856 10.4724 18.9972 10 18.9972C9.52765 18.9972 9.06195 18.8856 8.64083 18.6716C8.21972 18.4576 7.85509 18.1472 7.57664 17.7656C7.29819 17.384 7.11379 16.942 7.03844 16.4757C6.96309 16.0094 6.99892 15.5319 7.14302 15.082M1.12402 5.5C1.40599 3.82497 2.15782 2.26444 3.29202 1M16.708 1C17.8422 2.26444 18.5941 3.82497 18.876 5.5" stroke="#A3A3A3" stroke-width="1.5" stroke-linecap="round" stroke-linejoin="round"/>
</symbol>

<symbol id="trash"  viewBox="0 0 16 16">
    <path d="M12.2833 7.50001L11.995 15M8.005 15L7.71667 7.50001M16.0233 4.82501C16.3083 4.86834 16.5917 4.91417 16.875 4.96334M16.0233 4.82501L15.1333 16.3942C15.097 16.8652 14.8842 17.3051 14.5375 17.626C14.1908 17.9469 13.7358 18.1251 13.2633 18.125H6.73667C6.26425 18.1251 5.80919 17.9469 5.46248 17.626C5.11578 17.3051 4.90299 16.8652 4.86667 16.3942L3.97667 4.82501M16.0233 4.82501C15.0616 4.6796 14.0948 4.56925 13.125 4.49417M3.97667 4.82501C3.69167 4.86751 3.40833 4.91334 3.125 4.96251M3.97667 4.82501C4.93844 4.67961 5.9052 4.56926 6.875 4.49417M13.125 4.49417V3.73084C13.125 2.74751 12.3667 1.92751 11.3833 1.89667C10.4613 1.86721 9.53865 1.86721 8.61667 1.89667C7.63333 1.92751 6.875 2.74834 6.875 3.73084V4.49417M13.125 4.49417C11.0448 4.33341 8.95523 4.33341 6.875 4.49417" stroke="#737373" stroke-width="1.5" stroke-linecap="round" stroke-linejoin="round"/>
</symbol>

<symbol id="x-mark"  viewBox="0 0 16 16">
<rect width="16" height="16" rx="8" fill="#FF3B30"/>
<path d="M5 11L11 5M5 5L11 11" stroke="white" stroke-width="1.5" stroke-linecap="round" stroke-linejoin="round"/>
</symbol>

<symbol id="in-progress"  viewBox="0 0 24 24">
<circle opacity="0.5" cx="1.8" cy="8.8" r="1.8" fill="#007AFF"/>
<circle opacity="0.5" cx="9.0002" cy="8.8" r="1.8" fill="#007AFF"/>
<circle cx="16.1999" cy="8.8" r="1.8" fill="#007AFF"/>
</symbol>

<symbol id="check" fill="#00BC71" viewBox="0 0 24 24">
    <path d="M22 12C22 6.47715 17.5228 2 12 2C6.47715 2 2 6.47715 2 12C2 17.5228 6.47715 22 12 22C17.5228 22 22 17.5228 22 12Z"  stroke="#00BC71"  stroke-width="1.5"/>
    <path d="M8 12.5L10.5 15L16 9" stroke="#fff" stroke-width="1.5" stroke-linecap="round" stroke-linejoin="round"/>
</symbol>

<symbol id="in-review" fill="none" viewBox="0 0 24 24">
    <path d="M15.5 16C14.9943 16.4915 13 17.7998 13 18.5M15.5 21C14.9943 20.5085 13 19.2002 13 18.5M13 18.5L21 18.5" stroke="#FF9500" stroke-width="1.5" stroke-linecap="round" stroke-linejoin="round"/>
    <path d="M11 22H10.7273C7.46607 22 5.83546 22 4.70307 21.2022C4.37862 20.9736 4.09058 20.7025 3.8477 20.3971C3 19.3313 3 17.7966 3 14.7273V12.1818C3 9.21865 3 7.73706 3.46894 6.55375C4.22281 4.65142 5.81714 3.15088 7.83836 2.44135C9.09563 2 10.6698 2 13.8182 2C15.6173 2 16.5168 2 17.2352 2.2522C18.3902 2.65765 19.3012 3.5151 19.732 4.60214C20 5.27832 20 6.12494 20 7.81818V13" stroke="#FF9500" stroke-width="1.5" stroke-linecap="round" stroke-linejoin="round"/>
    <path d="M3 12C3 10.1591 4.49238 8.66667 6.33333 8.66667C6.99912 8.66667 7.78404 8.78333 8.43137 8.60988C9.00652 8.45576 9.45576 8.00652 9.60988 7.43136C9.78333 6.78404 9.66667 5.99912 9.66667 5.33333C9.66667 3.49238 11.1591 2 13 2" stroke="#FF9500" stroke-width="1.5" stroke-linecap="round" stroke-linejoin="round"/>
</symbol>

<symbol fill="none" viewBox="0 0 24 24" id="settings">
    <path d="M7.59396 1.94C7.68396 1.398 8.15396 1 8.70396 1H11.297C11.847 1 12.317 1.398 12.407 1.94L12.62 3.221C12.683 3.595 12.933 3.907 13.265 4.091C13.339 4.131 13.412 4.174 13.485 4.218C13.809 4.414 14.205 4.475 14.56 4.342L15.777 3.886C16.0264 3.79221 16.301 3.78998 16.5518 3.87971C16.8027 3.96945 17.0136 4.14531 17.147 4.376L18.443 6.623C18.576 6.8537 18.6229 7.12413 18.5753 7.38617C18.5277 7.6482 18.3887 7.88485 18.183 8.054L17.18 8.881C16.887 9.121 16.742 9.494 16.749 9.873C16.7506 9.95799 16.7506 10.043 16.749 10.128C16.742 10.506 16.887 10.878 17.179 11.118L18.184 11.946C18.608 12.296 18.718 12.9 18.444 13.376L17.146 15.623C17.0128 15.8536 16.8022 16.0296 16.5515 16.1195C16.3008 16.2094 16.0263 16.2074 15.777 16.114L14.56 15.658C14.205 15.525 13.81 15.586 13.484 15.782C13.4115 15.8261 13.3381 15.8688 13.264 15.91C12.933 16.093 12.683 16.405 12.62 16.779L12.407 18.059C12.317 18.602 11.847 19 11.297 19H8.70296C8.15296 19 7.68296 18.602 7.59296 18.06L7.37996 16.779C7.31796 16.405 7.06796 16.093 6.73596 15.909C6.66181 15.8681 6.58846 15.8258 6.51596 15.782C6.19096 15.586 5.79596 15.525 5.43996 15.658L4.22296 16.114C3.97369 16.2075 3.69933 16.2096 3.44866 16.1199C3.19799 16.0302 2.98727 15.8545 2.85396 15.624L1.55696 13.377C1.4239 13.1463 1.37701 12.8759 1.42462 12.6138C1.47223 12.3518 1.61125 12.1152 1.81696 11.946L2.82096 11.119C3.11296 10.879 3.25796 10.506 3.25096 10.127C3.2494 10.042 3.2494 9.95699 3.25096 9.872C3.25796 9.494 3.11296 9.122 2.82096 8.882L1.81696 8.054C1.6115 7.88489 1.47264 7.64843 1.42503 7.38662C1.37743 7.12481 1.42418 6.8546 1.55696 6.624L2.85396 4.377C2.98715 4.14614 3.19797 3.97006 3.44887 3.88014C3.69977 3.79021 3.97445 3.79229 4.22396 3.886L5.43996 4.342C5.79596 4.475 6.19096 4.414 6.51596 4.218C6.58796 4.174 6.66196 4.131 6.73596 4.09C7.06796 3.907 7.31796 3.595 7.37996 3.221L7.59396 1.94Z"  stroke-width="1.5" stroke-linecap="round" stroke-linejoin="round"/>
    <path d="M13 10C13 10.7956 12.6839 11.5587 12.1213 12.1213C11.5587 12.6839 10.7956 13 9.99996 13C9.20431 13 8.44125 12.6839 7.87864 12.1213C7.31603 11.5587 6.99996 10.7956 6.99996 10C6.99996 9.20435 7.31603 8.44129 7.87864 7.87868C8.44125 7.31607 9.20431 7 9.99996 7C10.7956 7 11.5587 7.31607 12.1213 7.87868C12.6839 8.44129 13 9.20435 13 10Z" stroke-width="1.5" stroke-linecap="round" stroke-linejoin="round"/>
</symbol>
    

<symbol fill="none" viewBox="0 0 24 24" id="marketplace">
    <path d="M1.25 1H2.636C3.146 1 3.591 1.343 3.723 1.835L4.106 3.272M4.106 3.272C9.67664 3.11589 15.2419 3.73515 20.642 5.112C19.818 7.566 18.839 9.95 17.718 12.25H6.5M4.106 3.272L6.5 12.25M6.5 12.25C5.70435 12.25 4.94129 12.5661 4.37868 13.1287C3.81607 13.6913 3.5 14.4544 3.5 15.25H19.25M5 18.25C5 18.4489 4.92098 18.6397 4.78033 18.7803C4.63968 18.921 4.44891 19 4.25 19C4.05109 19 3.86032 18.921 3.71967 18.7803C3.57902 18.6397 3.5 18.4489 3.5 18.25C3.5 18.0511 3.57902 17.8603 3.71967 17.7197C3.86032 17.579 4.05109 17.5 4.25 17.5C4.44891 17.5 4.63968 17.579 4.78033 17.7197C4.92098 17.8603 5 18.0511 5 18.25ZM17.75 18.25C17.75 18.4489 17.671 18.6397 17.5303 18.7803C17.3897 18.921 17.1989 19 17 19C16.8011 19 16.6103 18.921 16.4697 18.7803C16.329 18.6397 16.25 18.4489 16.25 18.25C16.25 18.0511 16.329 17.8603 16.4697 17.7197C16.6103 17.579 16.8011 17.5 17 17.5C17.1989 17.5 17.3897 17.579 17.5303 17.7197C17.671 17.8603 17.75 18.0511 17.75 18.25Z" stroke-width="1.5" stroke-linecap="round" stroke-linejoin="round"/>
</symbol>

<symbol fill="none" viewBox="0 0 19 18" id="api">
<path d="M9.68358 6.1575L8.49387 7.34721M13.1405 9.61446L11.9508 10.8042M17.457 1.45697L15.5274 3.38652M1.90062 17.0133L2.83796 16.076L3.82939 15.0845M8.53047 5.00596L13.908 10.3835C14.3322 10.8077 15.0313 10.7966 15.4693 10.3585L16.605 9.22291C17.9191 7.90879 17.9526 5.81167 16.6797 4.53885L14.3751 2.2342C13.1023 0.961382 11.0051 0.994859 9.69102 2.30898L8.55539 3.44461C8.11735 3.88265 8.1062 4.58169 8.53047 5.00596ZM10.8263 13.4651L5.44883 8.0876C5.02455 7.66333 4.32551 7.67449 3.88747 8.11253L2.75184 9.24816C1.43772 10.5623 1.40425 12.6594 2.67707 13.9322L4.98171 16.2369C6.25453 17.5097 8.35166 17.4762 9.66577 16.1621L10.8014 15.0265C11.2394 14.5884 11.2506 13.8894 10.8263 13.4651Z"  stroke-width="1.5" stroke-linecap="round" stroke-linejoin="round"/>
</symbol>

<symbol fill="none" viewBox="0 0 11 7" id="arrow">
 <path fill-rule="evenodd" clip-rule="evenodd" d="M0.230322 5.78964C0.373581 5.92747 0.5657 6.00279 0.764462 5.99904C0.963223 5.99529 1.15236 5.91278 1.29032 5.76964L5.00032 1.83164L8.71032 5.76964C8.77776 5.84399 8.85943 5.90404 8.9505 5.94624C9.04157 5.98844 9.14019 6.01193 9.24051 6.01532C9.34082 6.01871 9.4408 6.00193 9.53451 5.96597C9.62822 5.93001 9.71376 5.87561 9.78606 5.80599C9.85836 5.73637 9.91596 5.65294 9.95542 5.56065C9.99489 5.46836 10.0154 5.36909 10.0158 5.26872C10.0162 5.16834 9.99647 5.06891 9.95773 4.97631C9.919 4.88372 9.86207 4.79983 9.79032 4.72964L5.54032 0.229642C5.47036 0.157055 5.38648 0.0993185 5.2937 0.0598829C5.20092 0.0204473 5.10114 0.000122293 5.00032 0.000122289C4.89951 0.000122284 4.79973 0.0204473 4.70695 0.0598828C4.61416 0.0993184 4.53029 0.157055 4.46032 0.229642L0.210322 4.72964C0.0724921 4.8729 -0.00282335 5.06502 0.000926858 5.26378C0.00467707 5.46254 0.0871861 5.65168 0.230322 5.78964Z" fill="#171717"/>
</symbol>

<symbol fill="none" viewBox="0 0 18 18" id="filter">
<path d="M7.5 3H17.25M7.5 3C7.5 3.39782 7.34196 3.77936 7.06066 4.06066C6.77936 4.34196 6.39782 4.5 6 4.5C5.60218 4.5 5.22064 4.34196 4.93934 4.06066C4.65804 3.77936 4.5 3.39782 4.5 3M7.5 3C7.5 2.60218 7.34196 2.22064 7.06066 1.93934C6.77936 1.65804 6.39782 1.5 6 1.5C5.60218 1.5 5.22064 1.65804 4.93934 1.93934C4.65804 2.22064 4.5 2.60218 4.5 3M4.5 3H0.75M7.5 15H17.25M7.5 15C7.5 15.3978 7.34196 15.7794 7.06066 16.0607C6.77936 16.342 6.39782 16.5 6 16.5C5.60218 16.5 5.22064 16.342 4.93934 16.0607C4.65804 15.7794 4.5 15.3978 4.5 15M7.5 15C7.5 14.6022 7.34196 14.2206 7.06066 13.9393C6.77936 13.658 6.39782 13.5 6 13.5C5.60218 13.5 5.22064 13.658 4.93934 13.9393C4.65804 14.2206 4.5 14.6022 4.5 15M4.5 15H0.75M13.5 9H17.25M13.5 9C13.5 9.39782 13.342 9.77936 13.0607 10.0607C12.7794 10.342 12.3978 10.5 12 10.5C11.6022 10.5 11.2206 10.342 10.9393 10.0607C10.658 9.77936 10.5 9.39782 10.5 9M13.5 9C13.5 8.60218 13.342 8.22064 13.0607 7.93934C12.7794 7.65804 12.3978 7.5 12 7.5C11.6022 7.5 11.2206 7.65804 10.9393 7.93934C10.658 8.22064 10.5 8.60218 10.5 9M10.5 9H0.75" stroke-width="1.5" stroke-linecap="round" stroke-linejoin="round"/>
</symbol>

<symbol fill="none" viewBox="0 0 24 24" id="print">
<path d="M6.72 13.829C6.48 13.859 6.24 13.891 6 13.925M6.72 13.829C10.2263 13.3891 13.7737 13.3891 17.28 13.829M6.72 13.829L6.34 18M17.28 13.829C17.52 13.859 17.76 13.891 18 13.925M17.28 13.829L17.889 20.523C17.9032 20.6787 17.8848 20.8356 17.8349 20.9837C17.7851 21.1319 17.7049 21.268 17.5995 21.3834C17.4942 21.4989 17.3659 21.5911 17.2229 21.6542C17.0799 21.7173 16.9253 21.7499 16.769 21.75H7.231C6.569 21.75 6.051 21.182 6.111 20.523L6.34 18M6.34 18H5.25C4.65326 18 4.08097 17.7629 3.65901 17.341C3.23705 16.919 3 16.3467 3 15.75V9.456C3 8.375 3.768 7.441 4.837 7.281C5.47295 7.18587 6.11074 7.10352 6.75 7.034M17.658 18H18.749C19.0446 18.0001 19.3372 17.942 19.6103 17.829C19.8834 17.716 20.1316 17.5503 20.3406 17.3413C20.5497 17.1324 20.7155 16.8843 20.8286 16.6113C20.9418 16.3382 21 16.0456 21 15.75V9.456C21 8.375 20.232 7.441 19.163 7.281C18.5271 7.18588 17.8893 7.10353 17.25 7.034M17.25 7.034C13.7603 6.6543 10.2397 6.6543 6.75 7.034M17.25 7.034V3.375C17.25 2.754 16.746 2.25 16.125 2.25H7.875C7.254 2.25 6.75 2.754 6.75 3.375V7.034M18 10.5H18.008V10.508H18V10.5ZM15 10.5H15.008V10.508H15V10.5Z" stroke-width="1.5" stroke-linecap="round" stroke-linejoin="round"/>
</symbol>

    
</svg>
