<svg width="19" height="18" viewBox="0 0 19 18" fill="none" xmlns="http://www.w3.org/2000/svg">
<path d="M3.48494 6.16725C2.78328 6.99538 2.2608 7.9599 1.95044 9C2.91944 12.2535 5.93294 14.625 9.49994 14.625C10.2447 14.625 10.9647 14.5215 11.6472 14.3287M5.17094 4.671C6.4554 3.82336 7.961 3.37262 9.49994 3.375C13.0669 3.375 16.0797 5.7465 17.0487 8.9985C16.5176 10.7755 15.3777 12.3087 13.8289 13.329M5.17094 4.671L2.74994 2.25M5.17094 4.671L7.90844 7.4085M13.8289 13.329L16.2499 15.75M13.8289 13.329L11.0914 10.5915C11.3004 10.3826 11.4661 10.1345 11.5792 9.86149C11.6923 9.58848 11.7505 9.29587 11.7505 9.00037C11.7505 8.70488 11.6923 8.41227 11.5792 8.13926C11.4661 7.86626 11.3004 7.6182 11.0914 7.40925C10.8825 7.2003 10.6344 7.03455 10.3614 6.92147C10.0884 6.80839 9.79581 6.75018 9.50031 6.75018C9.20481 6.75018 8.91221 6.80839 8.6392 6.92147C8.3662 7.03455 8.11814 7.2003 7.90919 7.40925M11.0907 10.5908L7.90994 7.41" stroke="#737373" stroke-width="1.5" stroke-linecap="round" stroke-linejoin="round"/>
</svg>
