<svg width="24" height="24" viewBox="0 0 24 24" fill="none" xmlns="http://www.w3.org/2000/svg">
<g clip-path="url(#clip0_0_3355)">
<path d="M5 6C6.654 6 8 4.654 8 3C8 1.346 6.654 0 5 0C3.346 0 2 1.346 2 3C2 4.654 3.346 6 5 6ZM5 1C6.103 1 7 1.897 7 3C7 4.103 6.103 5 5 5C3.897 5 3 4.103 3 3C3 1.897 3.897 1 5 1ZM5.5 9C3.019 9 1 11.019 1 13.5C1 13.776 0.776 14 0.5 14C0.224 14 0 13.776 0 13.5C0 10.468 2.467 8 5.5 8C5.87 8 6.24 8.037 6.599 8.109C6.87 8.164 7.045 8.427 6.99 8.699C6.935 8.969 6.667 9.145 6.401 9.09C6.107 9.03 5.804 9 5.5 9ZM14 6C15.654 6 17 4.654 17 3C17 1.346 15.654 0 14 0C12.346 0 11 1.346 11 3C11 4.654 12.346 6 14 6ZM14 1C15.103 1 16 1.897 16 3C16 4.103 15.103 5 14 5C12.897 5 12 4.103 12 3C12 1.897 12.897 1 14 1ZM13.5 8C16.533 8 19 10.468 19 13.5C19 13.776 18.776 14 18.5 14C18.224 14 18 13.776 18 13.5C18 11.019 15.981 9 13.5 9C13.196 9 12.893 9.03 12.599 9.09C12.332 9.149 12.065 8.969 12.01 8.699C11.955 8.428 12.131 8.164 12.401 8.109C12.76 8.037 13.13 8 13.5 8ZM6.5 13C6.5 14.654 7.846 16 9.5 16C11.154 16 12.5 14.654 12.5 13C12.5 11.346 11.154 10 9.5 10C7.846 10 6.5 11.346 6.5 13ZM9.5 11C10.603 11 11.5 11.897 11.5 13C11.5 14.103 10.603 15 9.5 15C8.397 15 7.5 14.103 7.5 13C7.5 11.897 8.397 11 9.5 11ZM15 23.5C15 23.776 14.776 24 14.5 24C14.224 24 14 23.776 14 23.5C14 21.019 11.981 19 9.5 19C7.019 19 5 21.019 5 23.5C5 23.776 4.776 24 4.5 24C4.224 24 4 23.776 4 23.5C4 20.468 6.467 18 9.5 18C12.533 18 15 20.468 15 23.5ZM24 19.5C24 19.776 23.776 20 23.5 20H20V23.5C20 23.776 19.776 24 19.5 24C19.224 24 19 23.776 19 23.5V20H15.5C15.224 20 15 19.776 15 19.5C15 19.224 15.224 19 15.5 19H19V15.5C19 15.224 19.224 15 19.5 15C19.776 15 20 15.224 20 15.5V19H23.5C23.776 19 24 19.224 24 19.5Z" fill="#999999"/>
</g>
<defs>
<clipPath id="clip0_0_3355">
<rect width="24" height="24" fill="white"/>
</clipPath>
</defs>
</svg>
